<svg width="32" height="32" viewBox="0 0 32 32" fill="none" xmlns="http://www.w3.org/2000/svg">
<rect width="32" height="32" rx="16" fill="#272727"/>
<path fill-rule="evenodd" clip-rule="evenodd" d="M17.8751 8.08411C17.7426 8.11529 17.6141 8.16113 17.4917 8.22077C17.3542 8.29244 16.3426 9.28494 12.7934 12.8308C8.54341 17.0758 8.26341 17.3633 8.16841 17.5674C8.11258 17.6874 8.05175 17.8691 8.03258 17.9716C8.01091 18.0916 8.00175 19.0049 8.00758 20.5374L8.01675 22.9166L8.10925 23.0741C8.21341 23.2516 8.37425 23.3866 8.55841 23.4524C8.66091 23.4891 9.88758 23.4974 15.4692 23.4983C21.4492 23.4999 22.2751 23.4941 22.4251 23.4491C22.7401 23.3558 23.0001 23.0016 23.0001 22.6666C23.0001 22.4691 22.9001 22.2383 22.7476 22.0858C22.4809 21.8191 22.6926 21.8333 18.9026 21.8333H15.5509L19.3717 18.0083C22.9534 14.4233 23.1992 14.1691 23.2959 13.9624C23.4024 13.7329 23.4563 13.4825 23.4537 13.2295C23.4511 12.9765 23.3921 12.7272 23.2809 12.4999C23.1676 12.2583 23.0984 12.1849 21.2067 10.2933C19.3176 8.40411 19.2417 8.33244 19.0001 8.21911C18.6042 8.03244 18.2876 7.99411 17.8751 8.08411ZM20.5667 14.4583C19.8976 15.1316 17.9701 17.0666 16.2834 18.7583L13.2167 21.8333H9.66675V18.2833L13.9584 13.9916L18.2501 9.69994L20.0167 11.4666L21.7834 13.2333L20.5667 14.4583Z" fill="#727272"/>
</svg>
