<svg width="24" height="24" viewBox="0 0 24 24" fill="none" xmlns="http://www.w3.org/2000/svg">
<path fill-rule="evenodd" clip-rule="evenodd" d="M11.5801 3.439C11.3491 3.554 5.50412 9.409 5.42212 9.609C5.34512 9.793 5.34212 10.199 5.41512 10.374C5.49412 10.563 5.70612 10.791 5.89612 10.891C6.11112 11.005 6.55512 11.012 6.76012 10.905C6.83712 10.865 7.82212 9.912 8.95012 8.786L11.0001 6.74V13.443C11.0001 20.979 10.9741 20.368 11.3061 20.7C11.4861 20.879 11.7641 21 12.0001 21C12.4021 21 12.8271 20.688 12.9391 20.31C12.9931 20.131 13.0001 19.289 13.0001 13.423V6.74L15.0501 8.786C16.1781 9.912 17.1631 10.865 17.2401 10.905C17.3371 10.955 17.4671 10.978 17.6601 10.978C17.9981 10.978 18.2011 10.885 18.4161 10.634C18.5771 10.446 18.6401 10.268 18.6401 10C18.6401 9.566 18.7951 9.742 15.5671 6.509C13.5611 4.501 12.5271 3.492 12.4171 3.439C12.1961 3.332 11.7971 3.332 11.5801 3.439Z" fill="#0F0F0F"/>
</svg>
