<svg width="24" height="24" viewBox="0 0 24 24" fill="none" xmlns="http://www.w3.org/2000/svg">
<path fill-rule="evenodd" clip-rule="evenodd" d="M3.673 5.063C3.31 5.175 3 5.606 3 6C3 6.405 3.309 6.826 3.69 6.939C3.87 6.993 4.86 7 12 7C19.14 7 20.13 6.993 20.31 6.939C20.688 6.827 21 6.402 21 6C21 5.598 20.688 5.173 20.31 5.061C20.13 5.007 19.144 5 11.983 5.003C5.03 5.005 3.833 5.014 3.673 5.063ZM3.673 11.063C3.31 11.175 3 11.606 3 12C3 12.405 3.309 12.826 3.69 12.939C3.87 12.993 4.86 13 12 13C19.14 13 20.13 12.993 20.31 12.939C20.688 12.827 21 12.402 21 12C21 11.598 20.688 11.173 20.31 11.061C20.13 11.007 19.144 11 11.983 11.003C5.03 11.005 3.833 11.014 3.673 11.063ZM3.673 17.063C3.31 17.175 3 17.606 3 18C3 18.405 3.309 18.826 3.69 18.939C3.87 18.993 4.86 19 12 19C19.14 19 20.13 18.993 20.31 18.939C20.688 18.827 21 18.402 21 18C21 17.598 20.688 17.173 20.31 17.061C20.13 17.007 19.144 17 11.983 17.003C5.03 17.005 3.833 17.014 3.673 17.063Z" fill="#FAFAFA"/>
</svg>
