<svg width="16" height="20" viewBox="0 0 16 20" fill="none" xmlns="http://www.w3.org/2000/svg">
<path fill-rule="evenodd" clip-rule="evenodd" d="M1.47591 0.0710533C0.986913 0.199053 0.544913 0.541053 0.263913 1.01205C-0.0190872 1.48305 -0.0010872 0.889053 0.0009128 10.0261C0.0029128 17.6741 0.0079129 18.2771 0.0719129 18.5211C0.201913 19.0201 0.597913 19.5141 1.06991 19.7701C1.50391 20.0051 1.25991 19.9971 7.99891 19.9971C14.7349 19.9971 14.4909 20.0051 14.9299 19.7701C15.1979 19.6271 15.6279 19.1971 15.7709 18.9291C16.0049 18.4911 15.9979 18.7141 15.9979 12.2151C15.9989 8.08705 15.9859 6.18005 15.9549 6.01705C15.9174 5.84583 15.8614 5.67919 15.7879 5.52005C15.6749 5.28005 15.4599 5.05405 13.2019 2.79505C10.9429 0.537053 10.7169 0.322053 10.4769 0.209053C10.3178 0.135566 10.1511 0.0795716 9.97991 0.0420533C9.81991 0.0120533 8.46391 -0.000946564 5.74191 5.34362e-05C2.09091 0.00205344 1.71591 0.0090533 1.47591 0.0710533ZM8.00691 4.42805L8.01891 6.85805L8.13091 7.09805C8.27791 7.41305 8.58591 7.72205 8.89491 7.86505L9.13891 7.97805L11.5689 7.99005L13.9989 8.00105V17.9981H1.99891V1.99805H7.99591L8.00691 4.42805ZM11.7989 4.21805L13.5789 5.99805H9.99891V4.21805C9.99891 3.23905 10.0039 2.43805 10.0089 2.43805C10.0149 2.43805 10.8199 3.23905 11.7989 4.21805Z" fill="#FAFAFA"/>
</svg>
