<svg width="24" height="24" viewBox="0 0 24 24" fill="none" xmlns="http://www.w3.org/2000/svg">
<path fill-rule="evenodd" clip-rule="evenodd" d="M11.4001 2.044C9.39108 2.271 7.66708 3.783 7.16208 5.76C7.01908 6.317 7.00008 6.766 7.00008 9.5C7.00008 12.234 7.01908 12.683 7.16208 13.24C7.55508 14.781 8.70308 16.072 10.2071 16.663C11.2981 17.093 12.7021 17.093 13.7931 16.663C14.5433 16.3672 15.2123 15.897 15.7447 15.2913C16.2772 14.6856 16.6578 13.9619 16.8551 13.18C16.9791 12.685 17.0001 12.158 17.0001 9.5C17.0001 6.768 16.9811 6.319 16.8391 5.76C16.3981 4.024 14.9801 2.606 13.2401 2.162C12.6386 2.01387 12.0156 1.97391 11.4001 2.044ZM12.8601 4.121C13.8251 4.421 14.5811 5.181 14.8861 6.16L14.9801 6.46V12.54L14.8861 12.84C14.7382 13.3223 14.4744 13.761 14.1177 14.1177C13.761 14.4743 13.3224 14.7382 12.8401 14.886C12.4061 15.021 11.5941 15.021 11.1601 14.886C10.6778 14.7382 10.2391 14.4743 9.88242 14.1177C9.52574 13.761 9.26192 13.3223 9.11408 12.84L9.02008 12.54V6.46L9.11408 6.16C9.45608 5.065 10.3731 4.239 11.4711 4.039C11.7971 3.979 12.5461 4.023 12.8601 4.121ZM4.74508 12.059C4.37808 12.19 4.08008 12.593 4.08008 12.957C4.08008 13.175 4.19408 13.777 4.31808 14.215C5.02908 16.729 7.03608 18.799 9.54008 19.601C9.94855 19.7323 10.3664 19.8322 10.7901 19.9L11.0001 19.928V20.537C11.0001 21.268 11.0451 21.439 11.3061 21.7C11.4861 21.879 11.7641 22 12.0001 22C12.2371 22 12.5141 21.88 12.6971 21.697C12.9511 21.442 13.0001 21.252 13.0001 20.516V19.928L13.2101 19.9C13.3251 19.885 13.6001 19.83 13.8201 19.779C15.0775 19.4838 16.2449 18.8888 17.2226 18.0448C18.2004 17.2008 18.9594 16.1329 19.4351 14.932C19.6841 14.306 19.9201 13.353 19.9201 12.974C19.9201 12.352 19.2411 11.85 18.6561 12.041C18.2181 12.183 18.0161 12.472 17.8791 13.152C17.4971 15.04 16.2991 16.586 14.5841 17.403C14.1969 17.5846 13.7939 17.7302 13.3801 17.838C12.8101 17.995 11.8631 18.039 11.1801 17.941C9.93166 17.763 8.77035 17.1984 7.85923 16.3265C6.94811 15.4547 6.33293 14.3194 6.10008 13.08C6.01508 12.623 5.88808 12.367 5.66608 12.21C5.36508 11.997 5.05908 11.947 4.74508 12.059Z" fill="#FAFAFA"/>
</svg>
