<svg width="96" height="120" viewBox="0 0 96 120" fill="none" xmlns="http://www.w3.org/2000/svg">
<path fill-rule="evenodd" clip-rule="evenodd" d="M8.85548 0.42632C5.92148 1.19432 3.26948 3.24632 1.58348 6.07232C-0.114523 8.89832 -0.0065232 5.33432 0.0054768 60.1563C0.0174768 106.044 0.0474774 109.662 0.431477 111.126C1.21148 114.12 3.58748 117.084 6.41948 118.62C9.02348 120.03 7.55948 119.982 47.9935 119.982C88.4095 119.982 86.9455 120.03 89.5795 118.62C91.1875 117.762 93.7675 115.182 94.6255 113.574C96.0295 110.946 95.9875 112.284 95.9875 73.2903C95.9935 48.5223 95.9155 37.0803 95.7295 36.1023C95.5044 35.075 95.1684 34.0751 94.7275 33.1203C94.0495 31.6803 92.7595 30.3243 79.2115 16.7703C65.6575 3.22232 64.3015 1.93232 62.8615 1.25432C61.9067 0.813398 60.9068 0.477429 59.8795 0.25232C58.9195 0.0723195 50.7835 -0.00567938 34.4515 0.000320617C12.5455 0.0123206 10.2955 0.0543198 8.85548 0.42632ZM48.0415 26.5683L48.1135 41.1483L48.7855 42.5883C49.6675 44.4783 51.5155 46.3323 53.3695 47.1903L54.8335 47.8683L69.4135 47.9403L83.9935 48.0063V107.988H11.9935V11.9883H47.9755L48.0415 26.5683ZM70.7935 25.3083L81.4735 35.9883H59.9935V25.3083C59.9935 19.4343 60.0235 14.6283 60.0535 14.6283C60.0895 14.6283 64.9195 19.4343 70.7935 25.3083Z" fill="#727272"/>
</svg>
