<svg width="24" height="24" viewBox="0 0 24 24" fill="none" xmlns="http://www.w3.org/2000/svg">
<path fill-rule="evenodd" clip-rule="evenodd" d="M11.2499 2.04304C9.97691 2.13804 8.82691 2.45304 7.61991 3.04004C6.30605 3.6737 5.14871 4.59028 4.23091 5.72404C3.04791 7.20004 2.34191 8.86404 2.07491 10.8C2.00791 11.29 2.00791 12.747 2.07491 13.24C2.14091 13.726 2.30091 14.478 2.37691 14.659C2.47991 14.905 2.63991 15.074 2.88991 15.199C3.27091 15.389 3.66591 15.362 4.00891 15.124C4.18691 15 6.44291 12.415 6.58791 12.168C6.72591 11.935 6.75491 11.567 6.65891 11.278C6.51991 10.86 6.09191 10.56 5.63491 10.56C5.48191 10.56 4.36591 10.819 4.13291 10.908C4.06691 10.934 4.08491 10.772 4.20891 10.22C4.63391 8.34004 5.80991 6.59004 7.39991 5.47204C8.90591 4.41304 10.8319 3.88404 12.6199 4.03804C14.5049 4.20104 16.1709 4.94704 17.5289 6.23704C18.5288 7.19214 19.2636 8.3905 19.6613 9.71483C20.0591 11.0392 20.1061 12.4441 19.7979 13.792C18.9649 17.406 15.7359 19.996 12.0599 19.999C10.9378 20.0123 9.82605 19.7842 8.79991 19.33C8.05091 19.003 7.56491 18.697 6.77691 18.058C6.32391 17.692 6.14691 17.616 5.82491 17.654C5.55491 17.686 5.30391 17.818 5.15491 18.006C4.91991 18.303 4.87091 18.579 4.98391 18.961C5.06191 19.224 5.31391 19.48 5.99991 19.997C8.50491 21.882 11.6459 22.463 14.7399 21.614C17.3919 20.886 19.6809 18.991 20.9409 16.478C21.6579 15.048 21.9759 13.678 21.9769 12.02C21.9769 10.895 21.8649 10.086 21.5729 9.12004C20.9013 6.90414 19.4824 4.98949 17.5579 3.70204C15.6947 2.47079 13.4778 1.88773 11.2499 2.04304ZM11.6729 6.06304C11.5323 6.11257 11.4055 6.19483 11.3029 6.30304C10.9879 6.61804 10.9959 6.52804 11.0089 9.58404C11.0189 12.117 11.0239 12.269 11.0959 12.42C11.1459 12.524 11.7449 13.154 12.8159 14.226C14.3889 15.802 14.4689 15.876 14.6769 15.936C14.9479 16.016 15.0519 16.016 15.3099 15.939C15.5889 15.856 15.8559 15.589 15.9389 15.31C16.0159 15.051 16.0159 14.947 15.9359 14.677C15.8749 14.471 15.7989 14.387 14.4359 13.018L12.9999 11.577V9.23604C12.9999 6.56204 13.0049 6.61104 12.6969 6.30304C12.4179 6.02404 12.0669 5.94204 11.6729 6.06304Z" fill="#FAFAFA"/>
</svg>
