<svg width="34" height="40" viewBox="0 0 34 40" fill="none" xmlns="http://www.w3.org/2000/svg">
<path d="M10.5324 33.953L5.42725 30.0491L0.171997 26.1452L2.2741 18.4875L2.72579 10.6797L3.32515 0.319336L13.2351 9.17819H16.8387H20.4423L30.3522 0.319336L30.9515 10.6797L31.4032 18.4875L33.5053 26.1452L28.2501 30.0491L23.145 33.953L21.9438 37.5566L16.8387 39.0581L11.7336 37.5566L10.5324 33.953Z" fill="#1A1A1A"/>
<path d="M10.5324 33.953L5.42725 30.0491M11.7336 17.7368L12.6988 21.7908L13.2351 24.0431L10.5324 33.953M23.145 33.953L21.9438 37.5566L16.8387 39.0581L11.7336 37.5566L10.5324 33.953M2.2741 18.4875L0.171997 26.1452L5.42725 30.0491M5.42725 30.0491L10.5324 24.0431M0.171997 26.1452L8.28011 21.1902M2.2741 18.4875L8.28011 21.1902M2.2741 18.4875L5.42725 14.2833M2.2741 18.4875L2.72579 10.6797M2.72579 10.6797L3.32515 0.319336L13.2351 9.17819M9.63146 9.17819L5.14222 2.87189L3.32515 0.319336M13.2351 9.17819H16.8387M13.2351 9.17819H9.63146M16.8387 9.17819V15.3344M16.8387 9.17819H20.4423M16.8387 15.3344L11.7336 17.7368M16.8387 15.3344L21.9438 17.7368M11.7336 17.7368L5.42725 14.2833M13.2351 24.0431H10.5324M11.7336 37.5566L16.8387 36.3554M16.8387 36.3554L14.136 35.3043V33.3524H16.8387H19.5414V35.3043L16.8387 36.3554ZM16.8387 36.3554L21.9438 37.5566M10.5324 24.0431L8.28011 21.1902M8.28011 21.1902L12.6988 21.7908M5.42725 14.2833L9.63146 9.17819M5.42725 14.2833L5.33724 10.6797M5.14222 2.87189L5.33724 10.6797M5.33724 10.6797H2.72579M23.145 33.953L28.2501 30.0491M21.9438 17.7368L20.9785 21.7908L20.4423 24.0431L23.145 33.953M31.4032 18.4875L33.5053 26.1452L28.2501 30.0491M28.2501 30.0491L23.145 24.0431M33.5053 26.1452L25.3972 21.1902M31.4032 18.4875L25.3972 21.1902M31.4032 18.4875L28.2501 14.2833M31.4032 18.4875L30.9515 10.6797M30.9515 10.6797L30.3522 0.319336L20.4423 9.17819M24.0459 9.17819L28.5351 2.87189L30.3522 0.319336M20.4423 9.17819H24.0459M21.9438 17.7368L28.2501 14.2833M20.4423 24.0431H23.145M23.145 24.0431L25.3972 21.1902M25.3972 21.1902L20.9785 21.7908M28.2501 14.2833L24.0459 9.17819M28.5351 2.87189L28.3401 10.6797L28.2501 14.2833M28.3401 10.6797H30.9515" stroke="#FAFAFA" stroke-width="0.3003"/>
<path d="M20.4423 9.1782L30.3522 0.319336L30.9515 10.6797L31.4032 18.6377L28.2501 14.2833L24.0459 9.1782H20.4423Z" fill="#1A1A1A"/>
<path d="M28.2501 14.2833L31.4032 18.6377L30.9515 10.6797L30.3522 0.319336L20.4423 9.1782H24.0459M24.0459 9.1782L28.5351 2.87189L30.3522 0.319336M28.2501 14.2833L24.0459 9.1782M28.5351 2.87189L28.3401 10.6797L28.2501 14.2833M28.3401 10.6797H30.9515" stroke="#FAFAFA" stroke-width="0.3003"/>
<path d="M11.7335 17.7368L16.8387 15.3344V33.3524H19.5414V35.3043L16.8387 36.3554L11.7335 37.5566L10.5323 33.953L13.2351 24.0431L12.6988 21.7908L11.7335 17.7368Z" fill="#1A1A1A"/>
<path d="M10.5324 33.953L5.42725 30.0491L0.171997 26.1452L2.2741 18.4875L2.72579 10.6797L3.32515 0.319336L13.2351 9.17819H16.8387V15.3344L11.7336 17.7368L12.6988 21.7908L13.2351 24.0431L10.5324 33.953L11.7336 37.5566L16.8387 36.3554L14.136 35.3043V33.3524H16.8387H19.5414V35.3043L16.8387 36.3554L11.7336 37.5566L10.5324 33.953Z" fill="#1A1A1A"/>
<path d="M10.5324 33.953L5.42725 30.0491M11.7336 17.7368L12.6988 21.7908L13.2351 24.0431L10.5324 33.953M16.8387 39.0581L11.7336 37.5566L10.5324 33.953M2.2741 18.4875L0.171997 26.1452L5.42725 30.0491M5.42725 30.0491L10.5324 24.0431M0.171997 26.1452L8.28011 21.1902M2.2741 18.4875L8.28011 21.1902M2.2741 18.4875L5.42725 14.2833M2.2741 18.4875L2.72579 10.6797M2.72579 10.6797L3.32515 0.319336L13.2351 9.17819M9.63146 9.17819L5.14222 2.87189L3.32515 0.319336M13.2351 9.17819H16.8387M13.2351 9.17819H9.63146M16.8387 9.17819V15.3344L11.7336 17.7368M16.8387 9.17819H20.4423M11.7336 17.7368L5.42725 14.2833M13.2351 24.0431H10.5324M11.7336 37.5566L16.8387 36.3554M16.8387 36.3554L14.136 35.3043V33.3524H16.8387H19.5414V35.3043L16.8387 36.3554ZM10.5324 24.0431L8.28011 21.1902M8.28011 21.1902L12.6988 21.7908M5.42725 14.2833L9.63146 9.17819M5.42725 14.2833L5.33724 10.6797M5.14222 2.87189L5.33724 10.6797M5.33724 10.6797H2.72579" stroke="#FAFAFA" stroke-width="0.3003"/>
<path d="M16.8387 36.3554L11.7335 37.5566L16.8387 39.0581L21.4933 37.5566L16.8387 36.3554Z" fill="#1A1A1A"/>
<path d="M10.5323 33.953L11.7335 37.5566M11.7335 37.5566L16.8387 36.3554L21.4933 37.5566L16.8387 39.0581L11.7335 37.5566Z" stroke="#FAFAFA" stroke-width="0.3003"/>
<path d="M10.5324 24.0431H13.2351L12.6989 21.7908L8.28015 21.1902L10.5324 24.0431Z" fill="#1A1A1A" stroke="#FAFAFA" stroke-width="0.3003"/>
</svg>
