<svg width="95" height="20" viewBox="0 0 95 20" fill="none" xmlns="http://www.w3.org/2000/svg">
<path d="M-0.000710174 18.9091V-3.33786e-06H6.92401C8.26586 -3.33786e-06 9.37689 0.221588 10.2571 0.66477C11.1373 1.1018 11.7959 1.69578 12.233 2.44673C12.67 3.19152 12.8885 4.03172 12.8885 4.96733C12.8885 5.7552 12.7438 6.41998 12.4545 6.96164C12.1652 7.49716 11.7775 7.92803 11.2912 8.25426C10.8111 8.57433 10.2817 8.80824 9.70312 8.95596V9.14062C10.331 9.1714 10.9434 9.37452 11.5405 9.75C12.1437 10.1193 12.6423 10.6456 13.0362 11.3288C13.4302 12.0121 13.6271 12.843 13.6271 13.8217C13.6271 14.7881 13.3994 15.656 12.9439 16.4254C12.4946 17.1887 11.799 17.795 10.8572 18.2443C9.91548 18.6875 8.71212 18.9091 7.24716 18.9091H-0.000710174ZM2.85227 16.4624H6.97017C8.33665 16.4624 9.31534 16.1977 9.90625 15.6683C10.4972 15.139 10.7926 14.4773 10.7926 13.6832C10.7926 13.0862 10.6418 12.5383 10.3402 12.0398C10.0386 11.5412 9.60772 11.1442 9.04759 10.8487C8.49361 10.5533 7.83499 10.4055 7.07173 10.4055H2.85227V16.4624ZM2.85227 8.18039H6.67472C7.31487 8.18039 7.89039 8.05729 8.40128 7.81108C8.91832 7.56486 9.32765 7.22017 9.62926 6.77699C9.93703 6.32765 10.0909 5.79829 10.0909 5.18892C10.0909 4.40719 9.817 3.75165 9.26918 3.2223C8.72135 2.69294 7.88116 2.42826 6.74858 2.42826H2.85227V8.18039ZM19.4461 -3.33786e-06V18.9091H16.6854V-3.33786e-06H19.4461ZM29.0297 19.1953C27.7002 19.1953 26.5399 18.8906 25.5489 18.2812C24.5579 17.6719 23.7885 16.8194 23.2407 15.7237C22.6929 14.6281 22.419 13.3478 22.419 11.8828C22.419 10.4117 22.6929 9.12523 23.2407 8.02343C23.7885 6.92163 24.5579 6.06605 25.5489 5.45667C26.5399 4.8473 27.7002 4.54261 29.0297 4.54261C30.3593 4.54261 31.5196 4.8473 32.5106 5.45667C33.5016 6.06605 34.271 6.92163 34.8188 8.02343C35.3666 9.12523 35.6405 10.4117 35.6405 11.8828C35.6405 13.3478 35.3666 14.6281 34.8188 15.7237C34.271 16.8194 33.5016 17.6719 32.5106 18.2812C31.5196 18.8906 30.3593 19.1953 29.0297 19.1953ZM29.039 16.8778C29.9007 16.8778 30.6147 16.6501 31.181 16.1946C31.7473 15.7391 32.1659 15.1328 32.4367 14.3757C32.7137 13.6186 32.8522 12.7846 32.8522 11.8736C32.8522 10.9687 32.7137 10.1378 32.4367 9.38068C32.1659 8.61742 31.7473 8.00497 31.181 7.54332C30.6147 7.08167 29.9007 6.85085 29.039 6.85085C28.1711 6.85085 27.4509 7.08167 26.8785 7.54332C26.3122 8.00497 25.8905 8.61742 25.6136 9.38068C25.3427 10.1378 25.2073 10.9687 25.2073 11.8736C25.2073 12.7846 25.3427 13.6186 25.6136 14.3757C25.8905 15.1328 26.3122 15.7391 26.8785 16.1946C27.4509 16.6501 28.1711 16.8778 29.039 16.8778ZM44.5918 19.1953C43.2191 19.1953 42.0373 18.8845 41.0463 18.2628C40.0615 17.6349 39.3044 16.7701 38.775 15.6683C38.2456 14.5665 37.981 13.3047 37.981 11.8828C37.981 10.4425 38.2518 9.1714 38.7935 8.0696C39.3351 6.96164 40.0984 6.09682 41.0832 5.47514C42.0681 4.85345 43.2284 4.54261 44.5641 4.54261C45.6412 4.54261 46.6015 4.74266 47.4447 5.14275C48.288 5.53669 48.9682 6.09067 49.4852 6.80468C50.0084 7.5187 50.3193 8.35274 50.4178 9.30682H47.731C47.5832 8.64204 47.2447 8.0696 46.7153 7.58949C46.1921 7.10937 45.4904 6.86932 44.6102 6.86932C43.8408 6.86932 43.1668 7.07244 42.5882 7.47869C42.0158 7.87878 41.5695 8.45123 41.2494 9.19602C40.9294 9.93466 40.7693 10.8087 40.7693 11.8182C40.7693 12.8523 40.9263 13.7448 41.2402 14.4957C41.5541 15.2467 41.9973 15.8284 42.5697 16.2408C43.1483 16.6532 43.8285 16.8594 44.6102 16.8594C45.1334 16.8594 45.6074 16.764 46.0321 16.5732C46.463 16.3762 46.8231 16.0961 47.1124 15.733C47.4078 15.3698 47.614 14.9328 47.731 14.4219H50.4178C50.3193 15.339 50.0207 16.1577 49.5222 16.8778C49.0236 17.598 48.3557 18.1643 47.5186 18.5767C46.6876 18.9891 45.712 19.1953 44.5918 19.1953ZM55.8051 14.0987L55.7866 10.7287H56.2667L61.9173 4.72727H65.2227L58.7781 11.5597H58.3441L55.8051 14.0987ZM53.266 18.9091V-3.33786e-06H56.0266V18.9091H53.266ZM62.222 18.9091L57.1438 12.169L59.0458 10.2393L65.6105 18.9091H62.222ZM73.1629 19.1953C71.7656 19.1953 70.5623 18.8968 69.5528 18.2997C68.5495 17.6965 67.7739 16.8501 67.2261 15.7607C66.6844 14.665 66.4136 13.3816 66.4136 11.9105C66.4136 10.4579 66.6844 9.17755 67.2261 8.0696C67.7739 6.96164 68.5372 6.09682 69.5159 5.47514C70.5007 4.85345 71.6518 4.54261 72.969 4.54261C73.7692 4.54261 74.5448 4.67495 75.2957 4.93963C76.0466 5.20431 76.7207 5.61979 77.3177 6.18608C77.9148 6.75236 78.3857 7.48792 78.7304 8.39275C79.0751 9.29143 79.2474 10.384 79.2474 11.6705V12.6491H67.974V10.581H76.5421C76.5421 9.85464 76.3944 9.21141 76.099 8.65128C75.8035 8.08499 75.388 7.63873 74.8525 7.3125C74.3232 6.98627 73.7015 6.82315 72.9875 6.82315C72.2119 6.82315 71.5348 7.01396 70.9562 7.39559C70.3838 7.77107 69.9406 8.26349 69.6267 8.87287C69.3189 9.47609 69.165 10.1316 69.165 10.8395V12.4553C69.165 13.4032 69.3312 14.2095 69.6636 14.8743C70.0021 15.5391 70.473 16.0469 71.0762 16.3977C71.6795 16.7424 72.3842 16.9148 73.1906 16.9148C73.7138 16.9148 74.1908 16.8409 74.6217 16.6932C75.0526 16.5393 75.425 16.3116 75.7389 16.0099C76.0528 15.7083 76.2929 15.3359 76.4591 14.8928L79.072 15.3636C78.8627 16.133 78.4872 16.8071 77.9456 17.3857C77.41 17.9581 76.736 18.4044 75.9235 18.7244C75.1172 19.0383 74.197 19.1953 73.1629 19.1953ZM87.5154 19.1861C86.3705 19.1861 85.3487 18.8937 84.45 18.3089C83.5575 17.718 82.8558 16.8778 82.3449 15.7883C81.8402 14.6927 81.5878 13.3785 81.5878 11.8459C81.5878 10.3132 81.8433 9.00213 82.3542 7.91264C82.8712 6.82315 83.5791 5.98911 84.4777 5.41051C85.3764 4.83191 86.3951 4.54261 87.5338 4.54261C88.4141 4.54261 89.1219 4.69034 89.6574 4.98579C90.1991 5.27509 90.6177 5.61363 90.9131 6.00142C91.2147 6.3892 91.4486 6.73082 91.6148 7.02628H91.781V-3.33786e-06H94.5417V18.9091H91.8456V16.7024H91.6148C91.4486 17.004 91.2086 17.3487 90.8946 17.7365C90.5869 18.1243 90.1622 18.4628 89.6205 18.7521C89.0788 19.0414 88.3771 19.1861 87.5154 19.1861ZM88.1248 16.8317C88.9188 16.8317 89.5897 16.6224 90.1375 16.2038C90.6915 15.7791 91.1101 15.1913 91.3932 14.4403C91.6825 13.6894 91.8272 12.8153 91.8272 11.8182C91.8272 10.8333 91.6856 9.97159 91.4025 9.23295C91.1193 8.49432 90.7038 7.91879 90.156 7.50639C89.6082 7.09398 88.9311 6.88778 88.1248 6.88778C87.2938 6.88778 86.6013 7.10322 86.0473 7.53409C85.4934 7.96496 85.0748 8.55279 84.7917 9.29758C84.5147 10.0424 84.3762 10.8826 84.3762 11.8182C84.3762 12.7661 84.5177 13.6186 84.8009 14.3757C85.084 15.1328 85.5026 15.733 86.0566 16.1761C86.6167 16.6132 87.3061 16.8317 88.1248 16.8317Z" fill="#FAFAFA"/>
</svg>
