<svg width="67" height="18" viewBox="0 0 67 18" fill="none" xmlns="http://www.w3.org/2000/svg">
<path d="M0.000177532 13.7237V0.632815H2.37163V6.17472H8.43768V0.632815H10.8155V13.7237H8.43768V8.16264H2.37163V13.7237H0.000177532ZM19.5142 9.59446V3.90554H21.8282V13.7237H19.5846V11.9787H19.4823C19.2607 12.5284 18.8964 12.978 18.3892 13.3274C17.8864 13.6768 17.2664 13.8516 16.5292 13.8516C15.8857 13.8516 15.3168 13.7088 14.8225 13.4233C14.3324 13.1335 13.9489 12.7138 13.6719 12.1641C13.3949 11.6101 13.2564 10.9411 13.2564 10.157V3.90554H15.5704V9.79901C15.5704 10.4212 15.7408 10.9155 16.0817 11.282C16.4226 11.6484 16.8701 11.8317 17.424 11.8317C17.765 11.8317 18.0952 11.7486 18.4148 11.5824C18.7344 11.4162 18.9965 11.169 19.201 10.8409C19.4098 10.5085 19.5142 10.093 19.5142 9.59446ZM26.4855 7.97088V13.7237H24.1716V3.90554H26.3833V5.57387H26.4983C26.7242 5.02415 27.0842 4.58736 27.5786 4.2635C28.0771 3.93963 28.6929 3.7777 29.4259 3.7777C30.1034 3.7777 30.6936 3.92259 31.1965 4.21236C31.7036 4.50213 32.0956 4.92188 32.3726 5.47159C32.6539 6.02131 32.7923 6.68821 32.7881 7.4723V13.7237H30.4742V7.83026C30.4742 7.17401 30.3037 6.66051 29.9628 6.28978C29.6262 5.91904 29.1595 5.73367 28.5629 5.73367C28.1581 5.73367 27.798 5.82316 27.4827 6.00213C27.1716 6.17685 26.9266 6.4304 26.7476 6.76279C26.5729 7.09517 26.4855 7.49787 26.4855 7.97088ZM40.0071 3.90554V5.69531H34.3629V3.90554H40.0071ZM35.7563 1.55327H38.0703V10.7706C38.0703 11.0817 38.1171 11.3203 38.2109 11.4865C38.3089 11.6484 38.4367 11.7592 38.5944 11.8189C38.7521 11.8786 38.9268 11.9084 39.1186 11.9084C39.2634 11.9084 39.3955 11.8977 39.5149 11.8764C39.6384 11.8551 39.7322 11.8359 39.7961 11.8189L40.186 13.6278C40.0625 13.6705 39.8856 13.7173 39.6555 13.7685C39.4296 13.8196 39.1527 13.8494 38.8245 13.858C38.245 13.875 37.723 13.7876 37.2585 13.5959C36.794 13.3999 36.4254 13.0973 36.1527 12.6882C35.8842 12.2791 35.7521 11.7678 35.7563 11.1541V1.55327ZM41.9062 13.7237V3.90554H44.2202V13.7237H41.9062ZM43.0696 2.51208C42.7031 2.51208 42.3878 2.39063 42.1236 2.14773C41.8594 1.90057 41.7273 1.60441 41.7273 1.25924C41.7273 0.909803 41.8594 0.613639 42.1236 0.370741C42.3878 0.123582 42.7031 2.38419e-06 43.0696 2.38419e-06C43.4403 2.38419e-06 43.7557 0.123582 44.0156 0.370741C44.2798 0.613639 44.4119 0.909803 44.4119 1.25924C44.4119 1.60441 44.2798 1.90057 44.0156 2.14773C43.7557 2.39063 43.4403 2.51208 43.0696 2.51208ZM48.8775 7.97088V13.7237H46.5636V3.90554H48.7753V5.57387H48.8903C49.1162 5.02415 49.4762 4.58736 49.9706 4.2635C50.4691 3.93963 51.0849 3.7777 51.8179 3.7777C52.4954 3.7777 53.0856 3.92259 53.5885 4.21236C54.0956 4.50213 54.4876 4.92188 54.7646 5.47159C55.0459 6.02131 55.1843 6.68821 55.1801 7.4723V13.7237H52.8662V7.83026C52.8662 7.17401 52.6957 6.66051 52.3548 6.28978C52.0182 5.91904 51.5515 5.73367 50.9549 5.73367C50.5501 5.73367 50.19 5.82316 49.8747 6.00213C49.5636 6.17685 49.3186 6.4304 49.1396 6.76279C48.9649 7.09517 48.8775 7.49787 48.8775 7.97088ZM61.7662 17.6101C60.9353 17.6101 60.2215 17.4972 59.6249 17.2713C59.0283 17.0497 58.5489 16.7514 58.1867 16.3764C57.8245 16.0014 57.5731 15.5859 57.4324 15.13L59.5162 14.625C59.61 14.8168 59.7464 15.0064 59.9253 15.1939C60.1043 15.3857 60.3451 15.5433 60.6476 15.6669C60.9545 15.7947 61.3401 15.8587 61.8046 15.8587C62.4608 15.8587 63.0042 15.6989 63.4346 15.3793C63.865 15.0639 64.0802 14.544 64.0802 13.8196V11.9595H63.9651C63.8458 12.1982 63.6711 12.4432 63.441 12.6946C63.2151 12.946 62.9147 13.157 62.5397 13.3274C62.1689 13.4979 61.7023 13.5831 61.1398 13.5831C60.3856 13.5831 59.7016 13.4063 59.088 13.0526C58.4786 12.6946 57.9928 12.1619 57.6306 11.4545C57.2726 10.7429 57.0937 9.85228 57.0937 8.78267C57.0937 7.70455 57.2726 6.79475 57.6306 6.05327C57.9928 5.30753 58.4807 4.7429 59.0944 4.35938C59.708 3.97159 60.392 3.7777 61.1462 3.7777C61.7215 3.7777 62.1945 3.87571 62.5653 4.07174C62.9403 4.2635 63.2385 4.49574 63.4601 4.76847C63.6817 5.03693 63.8501 5.29049 63.9651 5.52912H64.0929V3.90554H66.3749V13.8835C66.3749 14.723 66.1746 15.4176 65.7741 15.9673C65.3735 16.517 64.8259 16.9283 64.1313 17.201C63.4367 17.4737 62.6483 17.6101 61.7662 17.6101ZM61.7854 11.7678C62.2755 11.7678 62.6931 11.6484 63.0383 11.4098C63.3834 11.1712 63.6455 10.8281 63.8245 10.3807C64.0035 9.93324 64.0929 9.39631 64.0929 8.76989C64.0929 8.15199 64.0035 7.6108 63.8245 7.14631C63.6498 6.68182 63.3898 6.32174 63.0447 6.06605C62.7037 5.80611 62.284 5.67614 61.7854 5.67614C61.2698 5.67614 60.8394 5.81037 60.4942 6.07884C60.1491 6.3473 59.8891 6.71591 59.7144 7.18466C59.5397 7.64915 59.4523 8.17756 59.4523 8.76989C59.4523 9.37074 59.5397 9.89702 59.7144 10.3487C59.8934 10.7962 60.1554 11.1456 60.5006 11.397C60.8501 11.6442 61.2783 11.7678 61.7854 11.7678Z" fill="#FAFAFA"/>
</svg>
