<svg width="130" height="19" viewBox="0 0 130 19" fill="none" xmlns="http://www.w3.org/2000/svg">
<path d="M-0.000887796 3.56676V1.57883H10.4437V3.56676H6.39755V14.6697H4.04528V3.56676H-0.000887796ZM13.8083 14.8679C13.1861 14.8679 12.6258 14.7571 12.1272 14.5355C11.6329 14.3097 11.2408 13.9773 10.951 13.5383C10.6655 13.0994 10.5228 12.5582 10.5228 11.9148C10.5228 11.3608 10.625 10.9027 10.8296 10.5405C11.0341 10.1783 11.3133 9.88849 11.6669 9.67116C12.0206 9.45383 12.4191 9.28977 12.8623 9.17897C13.3097 9.06391 13.7721 8.98082 14.2493 8.92968C14.8246 8.87002 15.2912 8.81676 15.6492 8.76988C16.0071 8.71874 16.2671 8.64204 16.429 8.53977C16.5952 8.43323 16.6783 8.26917 16.6783 8.04758V8.00923C16.6783 7.52769 16.5356 7.15482 16.25 6.89062C15.9645 6.62641 15.5533 6.49431 15.0164 6.49431C14.4496 6.49431 14 6.61789 13.6677 6.86505C13.3395 7.11221 13.1179 7.40411 13.0029 7.74076L10.8424 7.43394C11.0128 6.83735 11.2941 6.33877 11.6861 5.9382C12.0782 5.53337 12.5576 5.23082 13.1243 5.03053C13.6911 4.82599 14.3175 4.72372 15.0036 4.72372C15.4766 4.72372 15.9475 4.77911 16.4162 4.88991C16.885 5.0007 17.3133 5.18394 17.701 5.43962C18.0888 5.69105 18.3999 6.03409 18.6343 6.46874C18.8729 6.9034 18.9922 7.44673 18.9922 8.09872V14.6697H16.7678V13.321H16.6911C16.5505 13.5937 16.3523 13.8494 16.0966 14.0881C15.8452 14.3224 15.5277 14.5121 15.1442 14.657C14.765 14.7976 14.3196 14.8679 13.8083 14.8679ZM14.4091 13.1676C14.8736 13.1676 15.2763 13.076 15.6172 12.8928C15.9581 12.7053 16.2202 12.4581 16.4035 12.1513C16.591 11.8445 16.6847 11.5099 16.6847 11.1477V9.99076C16.6123 10.0504 16.4887 10.1058 16.314 10.157C16.1435 10.2081 15.9517 10.2528 15.7387 10.2912C15.5256 10.3295 15.3147 10.3636 15.1059 10.3935C14.8971 10.4233 14.716 10.4489 14.5625 10.4702C14.2174 10.517 13.9084 10.5937 13.6357 10.7003C13.363 10.8068 13.1478 10.956 12.9901 11.1477C12.8324 11.3352 12.7536 11.5781 12.7536 11.8764C12.7536 12.3026 12.9091 12.6243 13.2202 12.8416C13.5313 13.0589 13.9276 13.1676 14.4091 13.1676ZM23.5969 1.57883V14.6697H21.2829V1.57883H23.5969ZM28.0497 11.5888L28.0433 8.79545H28.414L31.9424 4.85156H34.6463L30.3061 9.68394H29.8267L28.0497 11.5888ZM25.9403 14.6697V1.57883H28.2542V14.6697H25.9403ZM32.1022 14.6697L28.9062 10.2017L30.4659 8.57173L34.87 14.6697H32.1022ZM36.1523 14.6697V4.85156H38.4663V14.6697H36.1523ZM37.3157 3.45809C36.9492 3.45809 36.6339 3.33664 36.3697 3.09374C36.1055 2.84658 35.9734 2.55042 35.9734 2.20525C35.9734 1.85582 36.1055 1.55965 36.3697 1.31675C36.6339 1.0696 36.9492 0.946017 37.3157 0.946017C37.6864 0.946017 38.0018 1.0696 38.2617 1.31675C38.5259 1.55965 38.658 1.85582 38.658 2.20525C38.658 2.55042 38.5259 2.84658 38.2617 3.09374C38.0018 3.33664 37.6864 3.45809 37.3157 3.45809ZM43.1236 8.9169V14.6697H40.8097V4.85156H43.0213V6.51988H43.1364C43.3623 5.97016 43.7223 5.53337 44.2167 5.20951C44.7152 4.88565 45.331 4.72372 46.064 4.72372C46.7415 4.72372 47.3317 4.8686 47.8346 5.15837C48.3417 5.44815 48.7337 5.86789 49.0107 6.41761C49.2919 6.96732 49.4304 7.63423 49.4262 8.41832V14.6697H47.1123V8.77627C47.1123 8.12002 46.9418 7.60653 46.6009 7.23579C46.2642 6.86505 45.7976 6.67968 45.201 6.67968C44.7962 6.67968 44.4361 6.76917 44.1208 6.94815C43.8097 7.12286 43.5647 7.37641 43.3857 7.7088C43.211 8.04119 43.1236 8.44389 43.1236 8.9169ZM56.0123 18.5561C55.1814 18.5561 54.4676 18.4432 53.871 18.2173C53.2744 17.9957 52.795 17.6974 52.4328 17.3224C52.0706 16.9474 51.8192 16.532 51.6785 16.076L53.7623 15.571C53.8561 15.7628 53.9925 15.9524 54.1714 16.1399C54.3504 16.3317 54.5912 16.4893 54.8937 16.6129C55.2005 16.7408 55.5862 16.8047 56.0507 16.8047C56.7069 16.8047 57.2503 16.6449 57.6807 16.3253C58.1111 16.0099 58.3263 15.4901 58.3263 14.7656V12.9055H58.2112C58.0919 13.1442 57.9172 13.3892 57.6871 13.6406C57.4612 13.892 57.1608 14.103 56.7858 14.2734C56.415 14.4439 55.9484 14.5291 55.3859 14.5291C54.6317 14.5291 53.9477 14.3523 53.3341 13.9986C52.7247 13.6406 52.2389 13.1079 51.8767 12.4006C51.5187 11.6889 51.3398 10.7983 51.3398 9.72869C51.3398 8.65056 51.5187 7.74076 51.8767 6.99928C52.2389 6.25355 52.7268 5.68891 53.3405 5.30539C53.9541 4.91761 54.638 4.72372 55.3923 4.72372C55.9676 4.72372 56.4406 4.82173 56.8113 5.01775C57.1863 5.20951 57.4846 5.44176 57.7062 5.71448C57.9278 5.98295 58.0961 6.2365 58.2112 6.47514H58.339V4.85156H60.621V14.8295C60.621 15.669 60.4207 16.3636 60.0202 16.9133C59.6196 17.4631 59.072 17.8743 58.3774 18.147C57.6828 18.4197 56.8944 18.5561 56.0123 18.5561ZM56.0315 12.7138C56.5216 12.7138 56.9392 12.5945 57.2844 12.3558C57.6295 12.1172 57.8916 11.7741 58.0706 11.3267C58.2496 10.8793 58.339 10.3423 58.339 9.7159C58.339 9.09801 58.2496 8.55681 58.0706 8.09232C57.8959 7.62784 57.6359 7.26775 57.2907 7.01207C56.9498 6.75212 56.5301 6.62215 56.0315 6.62215C55.5159 6.62215 55.0855 6.75639 54.7403 7.02485C54.3952 7.29332 54.1352 7.66193 53.9605 8.13068C53.7858 8.59516 53.6984 9.12357 53.6984 9.7159C53.6984 10.3168 53.7858 10.843 53.9605 11.2947C54.1395 11.7422 54.4015 12.0916 54.7467 12.343C55.0961 12.5902 55.5244 12.7138 56.0315 12.7138ZM72.3894 8.12428C72.3894 6.52627 72.6004 5.05823 73.0222 3.72016C73.4484 2.37783 74.0812 1.13778 74.9207 -5.84126e-06H77.1004C76.7765 0.421869 76.4739 0.939625 76.1927 1.55326C75.9114 2.16264 75.6664 2.83167 75.4576 3.56036C75.2531 4.2848 75.0911 5.03693 74.9718 5.81676C74.8568 6.59659 74.7992 7.36576 74.7992 8.12428C74.7992 9.13423 74.8994 10.157 75.0997 11.1925C75.3042 12.228 75.5791 13.1889 75.9242 14.0753C76.2737 14.9574 76.6657 15.6797 77.1004 16.2422H74.9207C74.0812 15.1044 73.4484 13.8665 73.0222 12.5284C72.6004 11.1861 72.3894 9.71803 72.3894 8.12428ZM78.9644 14.6697V1.57883H81.3358V12.6818H87.1015V14.6697H78.9644ZM89.0214 14.6697V4.85156H91.3354V14.6697H89.0214ZM90.1848 3.45809C89.8183 3.45809 89.503 3.33664 89.2388 3.09374C88.9746 2.84658 88.8425 2.55042 88.8425 2.20525C88.8425 1.85582 88.9746 1.55965 89.2388 1.31675C89.503 1.0696 89.8183 0.946017 90.1848 0.946017C90.5555 0.946017 90.8709 1.0696 91.1308 1.31675C91.395 1.55965 91.5271 1.85582 91.5271 2.20525C91.5271 2.55042 91.395 2.84658 91.1308 3.09374C90.8709 3.33664 90.5555 3.45809 90.1848 3.45809ZM95.9927 8.9169V14.6697H93.6788V4.85156H95.8904V6.51988H96.0055C96.2314 5.97016 96.5914 5.53337 97.0858 5.20951C97.5843 4.88565 98.2001 4.72372 98.9331 4.72372C99.6106 4.72372 100.201 4.8686 100.704 5.15837C101.211 5.44815 101.603 5.86789 101.88 6.41761C102.161 6.96732 102.3 7.63423 102.295 8.41832V14.6697H99.9814V8.77627C99.9814 8.12002 99.8109 7.60653 99.47 7.23579C99.1333 6.86505 98.6667 6.67968 98.0701 6.67968C97.6653 6.67968 97.3052 6.76917 96.9899 6.94815C96.6788 7.12286 96.4338 7.37641 96.2548 7.7088C96.0801 8.04119 95.9927 8.44389 95.9927 8.9169ZM108.958 14.8615C107.974 14.8615 107.124 14.657 106.408 14.2479C105.696 13.8345 105.148 13.2507 104.765 12.4964C104.381 11.7379 104.19 10.8452 104.19 9.81818C104.19 8.80823 104.381 7.92187 104.765 7.15909C105.153 6.39204 105.694 5.79545 106.389 5.36931C107.083 4.93891 107.899 4.72372 108.837 4.72372C109.442 4.72372 110.013 4.82173 110.55 5.01775C111.091 5.20951 111.568 5.50781 111.982 5.91264C112.399 6.31747 112.727 6.83309 112.966 7.45951C113.205 8.08167 113.324 8.82315 113.324 9.68394V10.3935H105.276V8.8338H111.106C111.102 8.39062 111.006 7.99644 110.818 7.65127C110.631 7.30184 110.369 7.02698 110.032 6.8267C109.7 6.62641 109.312 6.52627 108.869 6.52627C108.396 6.52627 107.98 6.64133 107.622 6.87144C107.264 7.0973 106.985 7.39559 106.785 7.76633C106.589 8.13281 106.489 8.53551 106.484 8.97443V10.3359C106.484 10.907 106.589 11.397 106.798 11.8061C107.006 12.2109 107.298 12.522 107.673 12.7393C108.048 12.9524 108.487 13.0589 108.99 13.0589C109.327 13.0589 109.631 13.0121 109.904 12.9183C110.177 12.8203 110.413 12.6776 110.614 12.4901C110.814 12.3026 110.965 12.0703 111.068 11.7933L113.228 12.0362C113.092 12.6072 112.832 13.1058 112.448 13.532C112.069 13.9538 111.583 14.282 110.991 14.5163C110.398 14.7464 109.721 14.8615 108.958 14.8615ZM123.005 7.44673L120.896 7.67684C120.836 7.46377 120.732 7.26349 120.583 7.07599C120.438 6.88849 120.242 6.73721 119.995 6.62215C119.748 6.5071 119.445 6.44957 119.087 6.44957C118.606 6.44957 118.201 6.55397 117.873 6.76278C117.549 6.97159 117.389 7.24218 117.393 7.57457C117.389 7.86008 117.493 8.09232 117.706 8.2713C117.924 8.45028 118.282 8.5973 118.78 8.71235L120.455 9.07031C121.384 9.27059 122.074 9.58806 122.526 10.0227C122.982 10.4574 123.212 11.0263 123.216 11.7294C123.212 12.3473 123.031 12.8928 122.673 13.3658C122.319 13.8345 121.827 14.201 121.196 14.4652C120.566 14.7294 119.841 14.8615 119.023 14.8615C117.821 14.8615 116.854 14.6101 116.121 14.1072C115.388 13.6001 114.951 12.8949 114.811 11.9915L117.067 11.7741C117.169 12.2173 117.387 12.5518 117.719 12.7777C118.052 13.0035 118.484 13.1165 119.017 13.1165C119.566 13.1165 120.008 13.0035 120.34 12.7777C120.677 12.5518 120.845 12.2727 120.845 11.9403C120.845 11.6591 120.736 11.4268 120.519 11.2436C120.306 11.0604 119.973 10.9197 119.522 10.8217L117.847 10.4702C116.905 10.2741 116.209 9.94389 115.757 9.4794C115.305 9.01065 115.081 8.41832 115.086 7.70241C115.081 7.0973 115.245 6.57315 115.578 6.12997C115.915 5.68252 116.381 5.33735 116.978 5.09445C117.579 4.8473 118.271 4.72372 119.055 4.72372C120.206 4.72372 121.111 4.96874 121.772 5.4588C122.437 5.94886 122.848 6.6115 123.005 7.44673ZM129.218 9.33238C129.218 10.9261 129.005 12.3942 128.578 13.7365C128.157 15.0746 127.526 16.3125 126.686 17.4503H124.507C124.835 17.0284 125.137 16.5128 125.414 15.9034C125.696 15.294 125.939 14.625 126.143 13.8963C126.352 13.1676 126.514 12.4133 126.629 11.6335C126.748 10.8537 126.808 10.0866 126.808 9.33238C126.808 8.32244 126.706 7.29971 126.501 6.2642C126.301 5.22869 126.026 4.26775 125.676 3.38139C125.331 2.49502 124.941 1.77059 124.507 1.20809H126.686C127.526 2.34587 128.157 3.58593 128.578 4.92826C129.005 6.26633 129.218 7.73437 129.218 9.33238Z" fill="#FAFAFA"/>
</svg>
