<svg width="45" height="17" viewBox="0 0 45 17" fill="none" xmlns="http://www.w3.org/2000/svg">
<path d="M7.58718 3.77771C7.52752 3.21947 7.2761 2.78481 6.83292 2.47373C6.394 2.16265 5.82298 2.00711 5.11985 2.00711C4.62553 2.00711 4.20153 2.08169 3.84783 2.23083C3.49414 2.37998 3.22354 2.5824 3.03604 2.83808C2.84854 3.09376 2.75266 3.38566 2.7484 3.71379C2.7484 3.98652 2.81019 4.22302 2.93377 4.42331C3.06161 4.62359 3.2342 4.79405 3.45153 4.93467C3.66886 5.07103 3.90962 5.18609 4.17383 5.27984C4.43803 5.37359 4.70437 5.45243 4.97283 5.51635L6.20011 5.82316C6.69442 5.93822 7.16957 6.09376 7.62553 6.28978C8.08576 6.48581 8.49698 6.73297 8.8592 7.03126C9.22567 7.32956 9.51545 7.68964 9.72852 8.11152C9.94158 8.53339 10.0481 9.02771 10.0481 9.59447C10.0481 10.3615 9.8521 11.0369 9.46005 11.6207C9.068 12.2003 8.50124 12.6541 7.75977 12.9823C7.02255 13.3061 6.12979 13.4681 5.0815 13.4681C4.06303 13.4681 3.1788 13.3104 2.4288 12.995C1.68306 12.6797 1.09925 12.2195 0.677379 11.6144C0.259766 11.0092 0.0339134 10.272 -0.000177532 9.40271H2.33292C2.36701 9.85868 2.50764 10.2379 2.75479 10.5405C3.00195 10.8431 3.32369 11.0689 3.71999 11.2181C4.12056 11.3672 4.568 11.4418 5.06232 11.4418C5.57795 11.4418 6.02965 11.3651 6.41744 11.2117C6.80948 11.054 7.1163 10.8367 7.33789 10.5597C7.55948 10.2784 7.67241 9.9503 7.67667 9.5753C7.67241 9.23439 7.57227 8.95314 7.37624 8.73155C7.18022 8.50569 6.90536 8.31819 6.55167 8.16905C6.20224 8.01564 5.79315 7.87927 5.3244 7.75995L3.83505 7.37643C2.75692 7.09944 1.90465 6.6797 1.27823 6.1172C0.656073 5.55044 0.344993 4.79831 0.344993 3.86081C0.344993 3.0895 0.5538 2.41407 0.971413 1.83453C1.39329 1.25498 1.96644 0.805409 2.69087 0.485806C3.41531 0.161942 4.23562 1.06096e-05 5.15181 1.06096e-05C6.08079 1.06096e-05 6.89471 0.161942 7.59357 0.485806C8.2967 0.805409 8.84854 1.25072 9.24911 1.82174C9.64968 2.3885 9.85636 3.04049 9.86914 3.77771H7.58718ZM16.9267 3.45172V5.24149H11.2825V3.45172H16.9267ZM12.676 1.09944H14.9899V10.3168C14.9899 10.6279 15.0368 10.8665 15.1305 11.0327C15.2286 11.1946 15.3564 11.3054 15.5141 11.3651C15.6717 11.4247 15.8465 11.4546 16.0382 11.4546C16.1831 11.4546 16.3152 11.4439 16.4345 11.4226C16.5581 11.4013 16.6519 11.3821 16.7158 11.3651L17.1057 13.174C16.9821 13.2166 16.8053 13.2635 16.5752 13.3146C16.3493 13.3658 16.0723 13.3956 15.7442 13.4041C15.1646 13.4212 14.6426 13.3338 14.1781 13.1421C13.7136 12.946 13.345 12.6435 13.0723 12.2344C12.8038 11.8253 12.6717 11.3139 12.676 10.7003V1.09944ZM18.8259 13.2699V3.45172H21.0695V5.08808H21.1718C21.3508 4.52132 21.6576 4.08453 22.0922 3.77771C22.5312 3.46663 23.0319 3.31109 23.5944 3.31109C23.7222 3.31109 23.865 3.31748 24.0226 3.33027C24.1846 3.33879 24.3188 3.3537 24.4253 3.37501V5.50356C24.3273 5.46947 24.1718 5.43964 23.9587 5.41407C23.7499 5.38424 23.5475 5.36933 23.3515 5.36933C22.9296 5.36933 22.5503 5.46095 22.2137 5.64419C21.8813 5.82316 21.6192 6.07245 21.4275 6.39206C21.2357 6.71166 21.1398 7.08027 21.1398 7.49788V13.2699H18.8259ZM28.5761 13.4681C27.954 13.4681 27.3936 13.3573 26.895 13.1357C26.4007 12.9098 26.0087 12.5774 25.7189 12.1385C25.4334 11.6996 25.2906 11.1584 25.2906 10.5149C25.2906 9.96095 25.3929 9.50285 25.5974 9.14064C25.802 8.77842 26.0811 8.48865 26.4348 8.27132C26.7885 8.05399 27.1869 7.88993 27.6301 7.77913C28.0775 7.66407 28.5399 7.58098 29.0172 7.52984C29.5925 7.47018 30.0591 7.41691 30.417 7.37004C30.775 7.3189 31.0349 7.2422 31.1969 7.13993C31.3631 7.03339 31.4462 6.86933 31.4462 6.64774V6.60939C31.4462 6.12785 31.3034 5.75498 31.0179 5.49078C30.7324 5.22657 30.3212 5.09447 29.7842 5.09447C29.2175 5.09447 28.7679 5.21805 28.4355 5.46521C28.1074 5.71237 27.8858 6.00427 27.7707 6.34092L25.6102 6.0341C25.7807 5.43751 26.0619 4.93893 26.454 4.53836C26.846 4.13353 27.3254 3.83098 27.8922 3.63069C28.4589 3.42615 29.0854 3.32387 29.7714 3.32387C30.2445 3.32387 30.7153 3.37927 31.1841 3.49007C31.6528 3.60086 32.0811 3.7841 32.4689 4.03978C32.8567 4.2912 33.1677 4.63424 33.4021 5.0689C33.6408 5.50356 33.7601 6.04689 33.7601 6.69887V13.2699H31.5356V11.9212H31.4589C31.3183 12.1939 31.1202 12.4496 30.8645 12.6882C30.6131 12.9226 30.2956 13.1122 29.9121 13.2571C29.5328 13.3977 29.0875 13.4681 28.5761 13.4681ZM29.177 11.7678C29.6415 11.7678 30.0442 11.6761 30.3851 11.4929C30.726 11.3054 30.9881 11.0582 31.1713 10.7514C31.3588 10.4446 31.4525 10.1101 31.4525 9.74788V8.59092C31.3801 8.65058 31.2565 8.70598 31.0818 8.75711C30.9114 8.80825 30.7196 8.85299 30.5065 8.89135C30.2935 8.9297 30.0825 8.96379 29.8737 8.99362C29.6649 9.02345 29.4838 9.04902 29.3304 9.07032C28.9852 9.1172 28.6763 9.1939 28.4035 9.30044C28.1308 9.40697 27.9156 9.55612 27.7579 9.74788C27.6003 9.93538 27.5214 10.1783 27.5214 10.4766C27.5214 10.9027 27.677 11.2244 27.9881 11.4418C28.2991 11.6591 28.6954 11.7678 29.177 11.7678ZM37.1374 16.9517C36.8221 16.9517 36.5302 16.9261 36.2617 16.875C35.9975 16.8281 35.7866 16.7727 35.6289 16.7088L36.1658 14.9063C36.5025 15.0043 36.8029 15.0511 37.0671 15.0469C37.3313 15.0426 37.5636 14.9595 37.7638 14.7976C37.9684 14.6399 38.141 14.3757 38.2816 14.005L38.4798 13.4744L34.9194 3.45172H37.3739L39.6367 10.8665H39.739L42.0082 3.45172H44.4691L40.538 14.4588C40.3548 14.9787 40.1119 15.424 39.8093 15.7948C39.5067 16.1698 39.136 16.4553 38.6971 16.6513C38.2624 16.8516 37.7425 16.9517 37.1374 16.9517Z" fill="#FAFAFA"/>
</svg>
