<svg width="155" height="18" viewBox="0 0 155 18" fill="none" xmlns="http://www.w3.org/2000/svg">
<path d="M-0.000887796 2.62074V0.632815H10.4437V2.62074H6.39755V13.7237H4.04528V2.62074H-0.000887796ZM14.6329 7.97088V13.7237H12.3189V0.632815H14.5817V5.57387H14.6968C14.9269 5.01989 15.2827 4.5831 15.7642 4.2635C16.25 3.93963 16.8679 3.7777 17.6179 3.7777C18.2998 3.7777 18.8942 3.92046 19.4013 4.20597C19.9084 4.49148 20.3005 4.90909 20.5775 5.45881C20.8587 6.00853 20.9993 6.67969 20.9993 7.4723V13.7237H18.6854V7.83026C18.6854 7.16975 18.515 6.65625 18.174 6.28978C17.8374 5.91904 17.3644 5.73367 16.755 5.73367C16.3459 5.73367 15.9794 5.82316 15.6556 6.00213C15.336 6.17685 15.0846 6.4304 14.9013 6.76279C14.7223 7.09517 14.6329 7.49787 14.6329 7.97088ZM23.322 13.7237V3.90554H25.6359V13.7237H23.322ZM24.4854 2.51208C24.1189 2.51208 23.8035 2.39063 23.5393 2.14773C23.2751 1.90057 23.143 1.60441 23.143 1.25924C23.143 0.909803 23.2751 0.613639 23.5393 0.370741C23.8035 0.123582 24.1189 2.38419e-06 24.4854 2.38419e-06C24.8561 2.38419e-06 25.1714 0.123582 25.4314 0.370741C25.6956 0.613639 25.8277 0.909803 25.8277 1.25924C25.8277 1.60441 25.6956 1.90057 25.4314 2.14773C25.1714 2.39063 24.8561 2.51208 24.4854 2.51208ZM30.2933 7.97088V13.7237H27.9794V3.90554H30.191V5.57387H30.3061C30.5319 5.02415 30.892 4.58736 31.3863 4.2635C31.8849 3.93963 32.5007 3.7777 33.2336 3.7777C33.9112 3.7777 34.5014 3.92259 35.0042 4.21236C35.5113 4.50213 35.9034 4.92188 36.1804 5.47159C36.4616 6.02131 36.6001 6.68821 36.5958 7.4723V13.7237H34.2819V7.83026C34.2819 7.17401 34.1115 6.66051 33.7706 6.28978C33.4339 5.91904 32.9673 5.73367 32.3707 5.73367C31.9659 5.73367 31.6058 5.82316 31.2904 6.00213C30.9794 6.17685 30.7343 6.4304 30.5554 6.76279C30.3806 7.09517 30.2933 7.49787 30.2933 7.97088ZM41.0215 10.6428L41.0151 7.84943H41.3858L44.9142 3.90554H47.6181L43.2779 8.73793H42.7985L41.0215 10.6428ZM38.9121 13.7237V0.632815H41.226V13.7237H38.9121ZM45.074 13.7237L41.878 9.25568L43.4377 7.62571L47.8418 13.7237H45.074ZM49.1242 13.7237V3.90554H51.4381V13.7237H49.1242ZM50.2875 2.51208C49.921 2.51208 49.6057 2.39063 49.3415 2.14773C49.0773 1.90057 48.9452 1.60441 48.9452 1.25924C48.9452 0.909803 49.0773 0.613639 49.3415 0.370741C49.6057 0.123582 49.921 2.38419e-06 50.2875 2.38419e-06C50.6582 2.38419e-06 50.9736 0.123582 51.2335 0.370741C51.4977 0.613639 51.6298 0.909803 51.6298 1.25924C51.6298 1.60441 51.4977 1.90057 51.2335 2.14773C50.9736 2.39063 50.6582 2.51208 50.2875 2.51208ZM56.0954 7.97088V13.7237H53.7815V3.90554H55.9932V5.57387H56.1082C56.3341 5.02415 56.6942 4.58736 57.1885 4.2635C57.6871 3.93963 58.3028 3.7777 59.0358 3.7777C59.7133 3.7777 60.3035 3.92259 60.8064 4.21236C61.3135 4.50213 61.7055 4.92188 61.9825 5.47159C62.2638 6.02131 62.4023 6.68821 62.398 7.4723V13.7237H60.0841V7.83026C60.0841 7.17401 59.9136 6.66051 59.5727 6.28978C59.2361 5.91904 58.7694 5.73367 58.1729 5.73367C57.768 5.73367 57.4079 5.82316 57.0926 6.00213C56.7815 6.17685 56.5365 6.4304 56.3575 6.76279C56.1828 7.09517 56.0954 7.49787 56.0954 7.97088ZM68.9842 17.6101C68.1532 17.6101 67.4394 17.4972 66.8428 17.2713C66.2462 17.0497 65.7668 16.7514 65.4046 16.3764C65.0424 16.0014 64.791 15.5859 64.6503 15.13L66.7342 14.625C66.8279 14.8168 66.9643 15.0064 67.1432 15.1939C67.3222 15.3857 67.563 15.5433 67.8655 15.6669C68.1724 15.7947 68.558 15.8587 69.0225 15.8587C69.6788 15.8587 70.2221 15.6989 70.6525 15.3793C71.0829 15.0639 71.2981 14.544 71.2981 13.8196V11.9595H71.183C71.0637 12.1982 70.889 12.4432 70.6589 12.6946C70.433 12.946 70.1326 13.157 69.7576 13.3274C69.3869 13.4979 68.9202 13.5831 68.3577 13.5831C67.6035 13.5831 66.9195 13.4063 66.3059 13.0526C65.6965 12.6946 65.2107 12.1619 64.8485 11.4545C64.4905 10.7429 64.3116 9.85228 64.3116 8.78267C64.3116 7.70455 64.4905 6.79475 64.8485 6.05327C65.2107 5.30753 65.6986 4.7429 66.3123 4.35938C66.9259 3.97159 67.6099 3.7777 68.3641 3.7777C68.9394 3.7777 69.4124 3.87571 69.7832 4.07174C70.1582 4.2635 70.4565 4.49574 70.678 4.76847C70.8996 5.03693 71.068 5.29049 71.183 5.52912H71.3109V3.90554H73.5928V13.8835C73.5928 14.723 73.3925 15.4176 72.992 15.9673C72.5914 16.517 72.0438 16.9283 71.3492 17.201C70.6546 17.4737 69.8663 17.6101 68.9842 17.6101ZM69.0033 11.7678C69.4934 11.7678 69.911 11.6484 70.2562 11.4098C70.6013 11.1712 70.8634 10.8281 71.0424 10.3807C71.2214 9.93324 71.3109 9.39631 71.3109 8.76989C71.3109 8.15199 71.2214 7.6108 71.0424 7.14631C70.8677 6.68182 70.6077 6.32174 70.2626 6.06605C69.9217 5.80611 69.5019 5.67614 69.0033 5.67614C68.4877 5.67614 68.0573 5.81037 67.7121 6.07884C67.367 6.3473 67.107 6.71591 66.9323 7.18466C66.7576 7.64915 66.6702 8.17756 66.6702 8.76989C66.6702 9.37074 66.7576 9.89702 66.9323 10.3487C67.1113 10.7962 67.3734 11.1456 67.7185 11.397C68.068 11.6442 68.4962 11.7678 69.0033 11.7678ZM88.1171 6.50071L86.0077 6.73083C85.948 6.51776 85.8436 6.31747 85.6945 6.12997C85.5496 5.94247 85.3536 5.7912 85.1064 5.67614C84.8592 5.56108 84.5567 5.50355 84.1987 5.50355C83.7172 5.50355 83.3124 5.60796 82.9842 5.81676C82.6604 6.02557 82.5006 6.29617 82.5048 6.62855C82.5006 6.91407 82.605 7.14631 82.818 7.32529C83.0354 7.50426 83.3933 7.65128 83.8919 7.76634L85.5666 8.12429C86.4956 8.32458 87.1859 8.64205 87.6377 9.07671C88.0936 9.51137 88.3237 10.0803 88.328 10.7834C88.3237 11.4013 88.1426 11.9467 87.7847 12.4197C87.431 12.8885 86.9388 13.255 86.3081 13.5192C85.6774 13.7834 84.953 13.9155 84.1348 13.9155C82.9331 13.9155 81.9658 13.6641 81.2328 13.1612C80.4999 12.6541 80.0631 11.9489 79.9225 11.0455L82.1788 10.8281C82.2811 11.2713 82.4984 11.6058 82.8308 11.8317C83.1632 12.0575 83.5957 12.1705 84.1284 12.1705C84.6781 12.1705 85.1192 12.0575 85.4516 11.8317C85.7882 11.6058 85.9565 11.3267 85.9565 10.9943C85.9565 10.7131 85.8479 10.4808 85.6305 10.2976C85.4175 10.1143 85.0851 9.97372 84.6334 9.87571L82.9587 9.52415C82.0169 9.32813 81.3202 8.99787 80.8685 8.53338C80.4168 8.06463 80.193 7.4723 80.1973 6.75639C80.193 6.15128 80.3571 5.62713 80.6895 5.18395C81.0261 4.73651 81.4928 4.39134 82.0894 4.14844C82.6902 3.90128 83.3827 3.7777 84.1668 3.7777C85.3173 3.7777 86.2229 4.02273 86.8834 4.51279C87.5482 5.00284 87.9594 5.66549 88.1171 6.50071ZM92.5139 7.97088V13.7237H90.2V0.632815H92.4628V5.57387H92.5779C92.808 5.01989 93.1638 4.5831 93.6453 4.2635C94.1311 3.93963 94.749 3.7777 95.499 3.7777C96.1808 3.7777 96.7753 3.92046 97.2824 4.20597C97.7895 4.49148 98.1815 4.90909 98.4585 5.45881C98.7398 6.00853 98.8804 6.67969 98.8804 7.4723V13.7237H96.5665V7.83026C96.5665 7.16975 96.396 6.65625 96.0551 6.28978C95.7185 5.91904 95.2455 5.73367 94.6361 5.73367C94.227 5.73367 93.8605 5.82316 93.5367 6.00213C93.2171 6.17685 92.9656 6.4304 92.7824 6.76279C92.6034 7.09517 92.5139 7.49787 92.5139 7.97088ZM101.203 13.7237V3.90554H103.517V13.7237H101.203ZM102.366 2.51208C102 2.51208 101.685 2.39063 101.42 2.14773C101.156 1.90057 101.024 1.60441 101.024 1.25924C101.024 0.909803 101.156 0.613639 101.42 0.370741C101.685 0.123582 102 2.38419e-06 102.366 2.38419e-06C102.737 2.38419e-06 103.053 0.123582 103.312 0.370741C103.577 0.613639 103.709 0.909803 103.709 1.25924C103.709 1.60441 103.577 1.90057 103.312 2.14773C103.053 2.39063 102.737 2.51208 102.366 2.51208ZM105.86 13.7237V3.90554H108.072V5.57387H108.187C108.392 5.01137 108.73 4.57245 109.203 4.2571C109.676 3.9375 110.241 3.7777 110.897 3.7777C111.562 3.7777 112.123 3.93963 112.578 4.2635C113.039 4.5831 113.363 5.01989 113.55 5.57387H113.652C113.87 5.02841 114.236 4.59375 114.752 4.26989C115.272 3.94176 115.887 3.7777 116.599 3.7777C117.502 3.7777 118.24 4.06321 118.811 4.63424C119.382 5.20526 119.667 6.03835 119.667 7.13353V13.7237H117.347V7.49148C117.347 6.8821 117.185 6.43679 116.861 6.15554C116.537 5.87003 116.141 5.72728 115.672 5.72728C115.114 5.72728 114.677 5.90199 114.362 6.25142C114.051 6.59659 113.895 7.04617 113.895 7.60014V13.7237H111.626V7.3956C111.626 6.8885 111.473 6.48367 111.166 6.18111C110.863 5.87855 110.467 5.72728 109.977 5.72728C109.645 5.72728 109.342 5.8125 109.069 5.98296C108.797 6.14915 108.579 6.38566 108.417 6.69247C108.255 6.99503 108.174 7.34872 108.174 7.75355V13.7237H105.86ZM121.979 13.7237V3.90554H124.19V5.57387H124.305C124.51 5.01137 124.849 4.57245 125.322 4.2571C125.795 3.9375 126.359 3.7777 127.016 3.7777C127.68 3.7777 128.241 3.93963 128.697 4.2635C129.157 4.5831 129.481 5.01989 129.668 5.57387H129.771C129.988 5.02841 130.354 4.59375 130.87 4.26989C131.39 3.94176 132.006 3.7777 132.717 3.7777C133.621 3.7777 134.358 4.06321 134.929 4.63424C135.5 5.20526 135.786 6.03835 135.786 7.13353V13.7237H133.465V7.49148C133.465 6.8821 133.303 6.43679 132.979 6.15554C132.656 5.87003 132.259 5.72728 131.791 5.72728C131.232 5.72728 130.795 5.90199 130.48 6.25142C130.169 6.59659 130.014 7.04617 130.014 7.60014V13.7237H127.744V7.3956C127.744 6.8885 127.591 6.48367 127.284 6.18111C126.982 5.87855 126.585 5.72728 126.095 5.72728C125.763 5.72728 125.46 5.8125 125.188 5.98296C124.915 6.14915 124.697 6.38566 124.536 6.69247C124.374 6.99503 124.293 7.34872 124.293 7.75355V13.7237H121.979ZM142.444 13.9155C141.459 13.9155 140.609 13.7109 139.893 13.3018C139.182 12.8885 138.634 12.3047 138.25 11.5504C137.867 10.7919 137.675 9.89915 137.675 8.87216C137.675 7.86222 137.867 6.97585 138.25 6.21307C138.638 5.44603 139.179 4.84943 139.874 4.4233C140.569 3.9929 141.385 3.7777 142.322 3.7777C142.927 3.7777 143.498 3.87571 144.035 4.07174C144.576 4.2635 145.054 4.56179 145.467 4.96662C145.885 5.37145 146.213 5.88708 146.451 6.5135C146.69 7.13566 146.809 7.87713 146.809 8.73793V9.44745H138.762V7.88779H144.591C144.587 7.4446 144.491 7.05043 144.304 6.70526C144.116 6.35583 143.854 6.08097 143.517 5.88068C143.185 5.6804 142.797 5.58026 142.354 5.58026C141.881 5.58026 141.466 5.69532 141.108 5.92543C140.75 6.15128 140.471 6.44958 140.27 6.82031C140.074 7.18679 139.974 7.58949 139.97 8.02841V9.38992C139.97 9.96094 140.074 10.451 140.283 10.8601C140.492 11.2649 140.784 11.576 141.159 11.7933C141.534 12.0064 141.973 12.1129 142.476 12.1129C142.812 12.1129 143.117 12.0661 143.39 11.9723C143.662 11.8743 143.899 11.7315 144.099 11.544C144.299 11.3565 144.451 11.1243 144.553 10.8473L146.714 11.0902C146.577 11.6612 146.317 12.1598 145.934 12.5859C145.554 13.0078 145.069 13.3359 144.476 13.5703C143.884 13.8004 143.206 13.9155 142.444 13.9155ZM148.731 13.7237V3.90554H150.975V5.54191H151.077C151.256 4.97514 151.563 4.53836 151.997 4.23154C152.436 3.92046 152.937 3.76492 153.499 3.76492C153.627 3.76492 153.77 3.77131 153.928 3.78409C154.09 3.79262 154.224 3.80753 154.33 3.82884V5.95739C154.232 5.9233 154.077 5.89347 153.864 5.8679C153.655 5.83807 153.453 5.82316 153.257 5.82316C152.835 5.82316 152.455 5.91478 152.119 6.09801C151.786 6.27699 151.524 6.52628 151.333 6.84588C151.141 7.16549 151.045 7.53409 151.045 7.95171V13.7237H148.731Z" fill="#FAFAFA"/>
</svg>
