<svg width="30" height="14" viewBox="0 0 30 14" fill="none" xmlns="http://www.w3.org/2000/svg">
<path d="M2.37163 2.38419e-06V13.0909H0.000177532V2.38419e-06H2.37163ZM8.44482 13.2635C7.67352 13.2635 6.98318 13.0653 6.3738 12.669C5.76443 12.2727 5.28289 11.6974 4.9292 10.9432C4.57551 10.1889 4.39866 9.27273 4.39866 8.1946C4.39866 7.1037 4.57764 6.18324 4.93559 5.43324C5.29781 4.67898 5.78573 4.11009 6.39937 3.72656C7.01301 3.33878 7.69695 3.14489 8.45122 3.14489C9.0265 3.14489 9.49951 3.2429 9.87025 3.43892C10.241 3.63068 10.535 3.86293 10.7524 4.13566C10.9697 4.40412 11.138 4.65767 11.2573 4.89631H11.3532V2.38419e-06H13.6735V13.0909H11.3979V11.544H11.2573C11.138 11.7827 10.9654 12.0362 10.7396 12.3047C10.5137 12.5689 10.2154 12.7947 9.84468 12.9822C9.47394 13.1697 9.00732 13.2635 8.44482 13.2635ZM9.09042 11.3651C9.58048 11.3651 9.99809 11.233 10.3433 10.9688C10.6884 10.7003 10.9505 10.3274 11.1295 9.85014C11.3085 9.37287 11.3979 8.81676 11.3979 8.18182C11.3979 7.54688 11.3085 6.99503 11.1295 6.52628C10.9548 6.05753 10.6948 5.69318 10.3497 5.43324C10.0087 5.1733 9.589 5.04333 9.09042 5.04333C8.5748 5.04333 8.1444 5.17756 7.79923 5.44603C7.45406 5.71449 7.19411 6.08523 7.0194 6.55824C6.84468 7.03125 6.75732 7.57245 6.75732 8.18182C6.75732 8.79546 6.84468 9.34304 7.0194 9.82458C7.19838 10.3018 7.46045 10.679 7.80562 10.956C8.15505 11.2287 8.58332 11.3651 9.09042 11.3651ZM18.4172 2.38419e-06V13.0909H16.1032V2.38419e-06H18.4172ZM25.1072 13.2827C24.1228 13.2827 23.2727 13.0781 22.5568 12.669C21.8451 12.2557 21.2975 11.6719 20.914 10.9176C20.5305 10.1591 20.3387 9.26634 20.3387 8.23935C20.3387 7.22941 20.5305 6.34304 20.914 5.58026C21.3018 4.81321 21.843 4.21662 22.5376 3.79049C23.2322 3.36009 24.0483 3.14489 24.9858 3.14489C25.5909 3.14489 26.1619 3.2429 26.6988 3.43892C27.24 3.63068 27.7173 3.92898 28.1306 4.33381C28.5483 4.73864 28.8764 5.25426 29.115 5.88068C29.3536 6.50284 29.473 7.24432 29.473 8.10512V8.81463H21.4254V7.25497H27.2549C27.2507 6.81179 27.1548 6.41762 26.9673 6.07245C26.7798 5.72301 26.5177 5.44816 26.1811 5.24787C25.8487 5.04759 25.4609 4.94745 25.0177 4.94745C24.5447 4.94745 24.1292 5.0625 23.7713 5.29262C23.4133 5.51847 23.1342 5.81676 22.9339 6.1875C22.7379 6.55398 22.6377 6.95668 22.6335 7.3956V8.75711C22.6335 9.32813 22.7379 9.81818 22.9467 10.2273C23.1555 10.6321 23.4474 10.9432 23.8224 11.1605C24.1974 11.3736 24.6363 11.4801 25.1392 11.4801C25.4758 11.4801 25.7805 11.4332 26.0532 11.3395C26.3259 11.2415 26.5625 11.0987 26.7627 10.9112C26.963 10.7237 27.1143 10.4915 27.2166 10.2145L29.3771 10.4574C29.2407 11.0284 28.9808 11.527 28.5973 11.9531C28.218 12.375 27.7322 12.7031 27.1399 12.9375C26.5475 13.1676 25.87 13.2827 25.1072 13.2827Z" fill="#FAFAFA"/>
</svg>
