<svg width="65" height="18" viewBox="0 0 65 18" fill="none" xmlns="http://www.w3.org/2000/svg">
<path d="M0.000177532 13.7237V0.632815H2.37163V6.17472H8.43768V0.632815H10.8155V13.7237H8.43768V8.16264H2.37163V13.7237H0.000177532ZM17.5391 13.9155C16.5803 13.9155 15.7493 13.7045 15.0462 13.2827C14.3431 12.8608 13.7976 12.2706 13.4098 11.5121C13.0263 10.7536 12.8346 9.86719 12.8346 8.85299C12.8346 7.83878 13.0263 6.95029 13.4098 6.1875C13.7976 5.42472 14.3431 4.83239 15.0462 4.41051C15.7493 3.98864 16.5803 3.7777 17.5391 3.7777C18.4979 3.7777 19.3289 3.98864 20.032 4.41051C20.7351 4.83239 21.2785 5.42472 21.662 6.1875C22.0498 6.95029 22.2437 7.83878 22.2437 8.85299C22.2437 9.86719 22.0498 10.7536 21.662 11.5121C21.2785 12.2706 20.7351 12.8608 20.032 13.2827C19.3289 13.7045 18.4979 13.9155 17.5391 13.9155ZM17.5519 12.0618C18.0718 12.0618 18.5064 11.919 18.8559 11.6335C19.2053 11.3438 19.4652 10.956 19.6357 10.4702C19.8104 9.98438 19.8978 9.44318 19.8978 8.84659C19.8978 8.24574 19.8104 7.70242 19.6357 7.21662C19.4652 6.72657 19.2053 6.33665 18.8559 6.04688C18.5064 5.7571 18.0718 5.61222 17.5519 5.61222C17.0192 5.61222 16.576 5.7571 16.2223 6.04688C15.8729 6.33665 15.6108 6.72657 15.4361 7.21662C15.2657 7.70242 15.1804 8.24574 15.1804 8.84659C15.1804 9.44318 15.2657 9.98438 15.4361 10.4702C15.6108 10.956 15.8729 11.3438 16.2223 11.6335C16.576 11.919 17.0192 12.0618 17.5519 12.0618ZM26.4855 0.632815V13.7237H24.1716V0.632815H26.4855ZM32.4724 13.8963C31.7011 13.8963 31.0108 13.6982 30.4014 13.3018C29.792 12.9055 29.3105 12.3303 28.9568 11.576C28.6031 10.8217 28.4263 9.90554 28.4263 8.82742C28.4263 7.73651 28.6052 6.81605 28.9632 6.06605C29.3254 5.31179 29.8133 4.7429 30.427 4.35938C31.0406 3.97159 31.7246 3.7777 32.4788 3.7777C33.0541 3.7777 33.5271 3.87571 33.8979 4.07174C34.2686 4.2635 34.5626 4.49574 34.78 4.76847C34.9973 5.03693 35.1656 5.29049 35.2849 5.52912H35.3808V0.632815H37.7011V13.7237H35.4256V12.1768H35.2849C35.1656 12.4155 34.993 12.669 34.7672 12.9375C34.5413 13.2017 34.243 13.4276 33.8723 13.6151C33.5016 13.8026 33.0349 13.8963 32.4724 13.8963ZM33.118 11.9979C33.6081 11.9979 34.0257 11.8658 34.3709 11.6016C34.716 11.3331 34.9781 10.9602 35.1571 10.483C35.3361 10.0057 35.4256 9.44958 35.4256 8.81463C35.4256 8.17969 35.3361 7.62784 35.1571 7.15909C34.9824 6.69034 34.7224 6.326 34.3773 6.06605C34.0364 5.80611 33.6166 5.67614 33.118 5.67614C32.6024 5.67614 32.172 5.81037 31.8268 6.07884C31.4817 6.3473 31.2217 6.71804 31.047 7.19105C30.8723 7.66407 30.7849 8.20526 30.7849 8.81463C30.7849 9.42827 30.8723 9.97585 31.047 10.4574C31.226 10.9347 31.4881 11.3118 31.8332 11.5888C32.1827 11.8615 32.6109 11.9979 33.118 11.9979ZM40.1309 13.7237V3.90554H42.4448V13.7237H40.1309ZM41.2942 2.51208C40.9277 2.51208 40.6124 2.39063 40.3482 2.14773C40.084 1.90057 39.9519 1.60441 39.9519 1.25924C39.9519 0.909803 40.084 0.613639 40.3482 0.370741C40.6124 0.123582 40.9277 2.38419e-06 41.2942 2.38419e-06C41.6649 2.38419e-06 41.9803 0.123582 42.2402 0.370741C42.5044 0.613639 42.6365 0.909803 42.6365 1.25924C42.6365 1.60441 42.5044 1.90057 42.2402 2.14773C41.9803 2.39063 41.6649 2.51208 41.2942 2.51208ZM47.1021 7.97088V13.7237H44.7882V3.90554H46.9999V5.57387H47.1149C47.3408 5.02415 47.7009 4.58736 48.1952 4.2635C48.6938 3.93963 49.3095 3.7777 50.0425 3.7777C50.72 3.7777 51.3102 3.92259 51.8131 4.21236C52.3202 4.50213 52.7122 4.92188 52.9892 5.47159C53.2705 6.02131 53.409 6.68821 53.4047 7.4723V13.7237H51.0908V7.83026C51.0908 7.17401 50.9203 6.66051 50.5794 6.28978C50.2428 5.91904 49.7761 5.73367 49.1796 5.73367C48.7747 5.73367 48.4146 5.82316 48.0993 6.00213C47.7882 6.17685 47.5432 6.4304 47.3642 6.76279C47.1895 7.09517 47.1021 7.49787 47.1021 7.97088ZM59.9909 17.6101C59.1599 17.6101 58.4461 17.4972 57.8495 17.2713C57.2529 17.0497 56.7735 16.7514 56.4113 16.3764C56.0491 16.0014 55.7977 15.5859 55.657 15.13L57.7409 14.625C57.8346 14.8168 57.971 15.0064 58.1499 15.1939C58.3289 15.3857 58.5697 15.5433 58.8722 15.6669C59.1791 15.7947 59.5647 15.8587 60.0292 15.8587C60.6855 15.8587 61.2288 15.6989 61.6592 15.3793C62.0896 15.0639 62.3048 14.544 62.3048 13.8196V11.9595H62.1897C62.0704 12.1982 61.8957 12.4432 61.6656 12.6946C61.4397 12.946 61.1393 13.157 60.7643 13.3274C60.3936 13.4979 59.9269 13.5831 59.3644 13.5831C58.6102 13.5831 57.9262 13.4063 57.3126 13.0526C56.7032 12.6946 56.2174 12.1619 55.8552 11.4545C55.4972 10.7429 55.3183 9.85228 55.3183 8.78267C55.3183 7.70455 55.4972 6.79475 55.8552 6.05327C56.2174 5.30753 56.7053 4.7429 57.319 4.35938C57.9326 3.97159 58.6166 3.7777 59.3708 3.7777C59.9461 3.7777 60.4191 3.87571 60.7899 4.07174C61.1649 4.2635 61.4632 4.49574 61.6847 4.76847C61.9063 5.03693 62.0747 5.29049 62.1897 5.52912H62.3176V3.90554H64.5995V13.8835C64.5995 14.723 64.3992 15.4176 63.9987 15.9673C63.5981 16.517 63.0505 16.9283 62.3559 17.201C61.6613 17.4737 60.873 17.6101 59.9909 17.6101ZM60.01 11.7678C60.5001 11.7678 60.9177 11.6484 61.2629 11.4098C61.608 11.1712 61.8701 10.8281 62.0491 10.3807C62.2281 9.93324 62.3176 9.39631 62.3176 8.76989C62.3176 8.15199 62.2281 7.6108 62.0491 7.14631C61.8744 6.68182 61.6144 6.32174 61.2693 6.06605C60.9284 5.80611 60.5086 5.67614 60.01 5.67614C59.4944 5.67614 59.064 5.81037 58.7188 6.07884C58.3737 6.3473 58.1137 6.71591 57.939 7.18466C57.7643 7.64915 57.6769 8.17756 57.6769 8.76989C57.6769 9.37074 57.7643 9.89702 57.939 10.3487C58.118 10.7962 58.3801 11.1456 58.7252 11.397C59.0747 11.6442 59.5029 11.7678 60.01 11.7678Z" fill="#FAFAFA"/>
</svg>
