<svg width="104" height="20" viewBox="0 0 104 20" fill="none" xmlns="http://www.w3.org/2000/svg">
<path d="M6.12074 18.9091H-0.000710174V-3.33786e-06H6.31463C8.16738 -3.33786e-06 9.75852 0.378548 11.0881 1.13565C12.4176 1.8866 13.4363 2.96685 14.1442 4.37642C14.8582 5.77983 15.2152 7.4633 15.2152 9.42684C15.2152 11.3965 14.8551 13.0892 14.1349 14.505C13.4209 15.9207 12.3868 17.0102 11.0327 17.7734C9.6785 18.5305 8.04119 18.9091 6.12074 18.9091ZM2.85227 16.4162H5.96378C7.40412 16.4162 8.60133 16.1454 9.5554 15.6037C10.5095 15.0559 11.2235 14.2649 11.6974 13.2308C12.1714 12.1906 12.4084 10.9226 12.4084 9.42684C12.4084 7.94342 12.1714 6.68466 11.6974 5.65057C11.2296 4.61647 10.531 3.83167 9.60156 3.29616C8.67211 2.76065 7.51799 2.49289 6.13921 2.49289H2.85227V16.4162ZM24.4111 19.1953C23.0815 19.1953 21.9213 18.8906 20.9303 18.2812C19.9393 17.6719 19.1699 16.8194 18.622 15.7237C18.0742 14.6281 17.8003 13.3478 17.8003 11.8828C17.8003 10.4117 18.0742 9.12523 18.622 8.02343C19.1699 6.92163 19.9393 6.06605 20.9303 5.45667C21.9213 4.8473 23.0815 4.54261 24.4111 4.54261C25.7406 4.54261 26.9009 4.8473 27.8919 5.45667C28.8829 6.06605 29.6523 6.92163 30.2002 8.02343C30.748 9.12523 31.0219 10.4117 31.0219 11.8828C31.0219 13.3478 30.748 14.6281 30.2002 15.7237C29.6523 16.8194 28.8829 17.6719 27.8919 18.2812C26.9009 18.8906 25.7406 19.1953 24.4111 19.1953ZM24.4203 16.8778C25.2821 16.8778 25.9961 16.6501 26.5624 16.1946C27.1287 15.7391 27.5472 15.1328 27.8181 14.3757C28.095 13.6186 28.2335 12.7846 28.2335 11.8736C28.2335 10.9687 28.095 10.1378 27.8181 9.38068C27.5472 8.61742 27.1287 8.00497 26.5624 7.54332C25.9961 7.08167 25.2821 6.85085 24.4203 6.85085C23.5524 6.85085 22.8323 7.08167 22.2598 7.54332C21.6935 8.00497 21.2719 8.61742 20.9949 9.38068C20.7241 10.1378 20.5886 10.9687 20.5886 11.8736C20.5886 12.7846 20.7241 13.6186 20.9949 14.3757C21.2719 15.1328 21.6935 15.7391 22.2598 16.1946C22.8323 16.6501 23.5524 16.8778 24.4203 16.8778ZM33.9994 18.9091V4.72727H36.6677V6.98011H36.8154C37.074 6.21685 37.5295 5.61671 38.1819 5.17968C38.8405 4.7365 39.5853 4.51491 40.4163 4.51491C40.5886 4.51491 40.7918 4.52107 41.0257 4.53338C41.2657 4.54569 41.4535 4.56108 41.5889 4.57954V7.22017C41.4781 7.18939 41.2811 7.15554 40.998 7.1186C40.7148 7.07552 40.4317 7.05397 40.1485 7.05397C39.4961 7.05397 38.9144 7.19247 38.4035 7.46946C37.8988 7.74029 37.4987 8.11884 37.2032 8.60511C36.9078 9.08522 36.76 9.63305 36.76 10.2486V18.9091H33.9994ZM43.8739 18.9091V4.72727H46.5238V7.03551H46.6992C46.9946 6.25379 47.4778 5.64441 48.1488 5.20738C48.8197 4.7642 49.623 4.54261 50.5586 4.54261C51.5065 4.54261 52.3005 4.7642 52.9407 5.20738C53.587 5.65056 54.064 6.25994 54.3718 7.03551H54.5195C54.858 6.27841 55.3966 5.67519 56.1353 5.22585C56.8739 4.77036 57.7541 4.54261 58.7759 4.54261C60.0623 4.54261 61.1118 4.94578 61.9243 5.75213C62.743 6.55847 63.1523 7.77414 63.1523 9.39914V18.9091H60.3917V9.65767C60.3917 8.69744 60.1301 8.00189 59.6069 7.57102C59.0837 7.14015 58.4589 6.92471 57.7326 6.92471C56.8339 6.92471 56.1353 7.2017 55.6367 7.75568C55.1381 8.3035 54.8888 9.00828 54.8888 9.87003V18.9091H52.1374V9.48224C52.1374 8.71283 51.8973 8.09422 51.4172 7.62642C50.9371 7.15861 50.3123 6.92471 49.5429 6.92471C49.0197 6.92471 48.5365 7.06321 48.0934 7.3402C47.6563 7.61103 47.3024 7.98958 47.0316 8.47585C46.7669 8.96212 46.6346 9.52533 46.6346 10.1655V18.9091H43.8739ZM70.8755 19.223C69.9769 19.223 69.1644 19.0568 68.438 18.7244C67.7117 18.3859 67.1362 17.8965 66.7115 17.2564C66.2929 16.6162 66.0836 15.8314 66.0836 14.902C66.0836 14.1018 66.2375 13.4432 66.5453 12.9261C66.8531 12.4091 67.2685 11.9998 67.7917 11.6982C68.3149 11.3965 68.8997 11.1688 69.546 11.0149C70.1923 10.861 70.8509 10.7441 71.5219 10.6641C72.3713 10.5656 73.0607 10.4856 73.59 10.424C74.1194 10.3563 74.5041 10.2486 74.7442 10.1008C74.9842 9.95312 75.1042 9.71307 75.1042 9.38068V9.31605C75.1042 8.5097 74.8765 7.88494 74.421 7.44176C73.9717 6.99858 73.3007 6.77699 72.4082 6.77699C71.4788 6.77699 70.7463 6.98319 70.2108 7.39559C69.6814 7.80184 69.3152 8.25426 69.1121 8.75284L66.5176 8.16193C66.8254 7.30019 67.2747 6.60464 67.8656 6.07528C68.4627 5.53977 69.149 5.15198 69.9246 4.91193C70.7001 4.66572 71.5157 4.54261 72.3713 4.54261C72.9376 4.54261 73.5377 4.61032 74.1717 4.74574C74.8119 4.875 75.4089 5.11505 75.9629 5.46591C76.523 5.81676 76.9816 6.31842 77.3386 6.97088C77.6956 7.61718 77.8741 8.45738 77.8741 9.49147V18.9091H75.1781V16.9702H75.0673C74.8888 17.3272 74.621 17.678 74.264 18.0227C73.907 18.3674 73.4485 18.6536 72.8883 18.8814C72.3282 19.1091 71.6573 19.223 70.8755 19.223ZM71.4757 17.0071C72.2389 17.0071 72.8914 16.8563 73.4331 16.5547C73.9809 16.2531 74.3964 15.8591 74.6795 15.3729C74.9688 14.8804 75.1135 14.3542 75.1135 13.794V11.9659C75.015 12.0644 74.8242 12.1567 74.541 12.2429C74.264 12.3229 73.947 12.3937 73.59 12.4553C73.233 12.5107 72.8853 12.563 72.5467 12.6122C72.2082 12.6553 71.925 12.6922 71.6973 12.723C71.1618 12.7907 70.6724 12.9046 70.2292 13.0646C69.7922 13.2247 69.4414 13.4555 69.1767 13.7571C68.9182 14.0526 68.7889 14.4465 68.7889 14.9389C68.7889 15.6222 69.0413 16.1392 69.546 16.4901C70.0507 16.8348 70.694 17.0071 71.4757 17.0071ZM84.2078 10.4886V18.9091H81.4472V4.72727H84.097V7.03551H84.2724C84.5987 6.28456 85.1096 5.68134 85.8051 5.22585C86.5068 4.77036 87.3901 4.54261 88.455 4.54261C89.4214 4.54261 90.2677 4.74574 90.994 5.15199C91.7204 5.55208 92.2836 6.14914 92.6837 6.94318C93.0838 7.73721 93.2838 8.71898 93.2838 9.88849V18.9091H90.5232V10.2209C90.5232 9.19294 90.2554 8.38968 89.7199 7.81108C89.1844 7.22632 88.4488 6.93395 87.5132 6.93395C86.8731 6.93395 86.3037 7.07244 85.8051 7.34943C85.3127 7.62642 84.9218 8.03267 84.6325 8.56818C84.3494 9.09754 84.2078 9.73769 84.2078 10.4886ZM103.502 4.72727V6.94318H95.7558V4.72727H103.502ZM97.8332 1.32954H100.594V14.745C100.594 15.2805 100.674 15.6837 100.834 15.9545C100.994 16.2192 101.2 16.4008 101.453 16.4993C101.711 16.5916 101.991 16.6378 102.293 16.6378C102.514 16.6378 102.708 16.6224 102.874 16.5916C103.041 16.5608 103.17 16.5362 103.262 16.5178L103.761 18.7983C103.601 18.8598 103.373 18.9214 103.078 18.983C102.782 19.0507 102.413 19.0876 101.97 19.0937C101.243 19.1061 100.566 18.9768 99.9383 18.706C99.3105 18.4351 98.8027 18.0166 98.4149 17.4503C98.0271 16.884 97.8332 16.1731 97.8332 15.3175V1.32954Z" fill="#FAFAFA"/>
</svg>
