<svg width="92" height="26" viewBox="0 0 92 26" fill="none" xmlns="http://www.w3.org/2000/svg">
<path d="M-0.000710174 19.6662V0.757107H11.7251V3.21307H2.85227V8.97444H10.8849V11.4212H2.85227V19.6662H-0.000710174ZM17.6687 0.757107V19.6662H14.9081V0.757107H17.6687ZM27.2524 19.9524C25.9229 19.9524 24.7626 19.6477 23.7716 19.0384C22.7806 18.429 22.0112 17.5765 21.4633 16.4808C20.9155 15.3852 20.6416 14.1049 20.6416 12.6399C20.6416 11.1688 20.9155 9.88234 21.4633 8.78054C22.0112 7.67875 22.7806 6.82316 23.7716 6.21378C24.7626 5.60441 25.9229 5.29972 27.2524 5.29972C28.582 5.29972 29.7422 5.60441 30.7332 6.21378C31.7242 6.82316 32.4936 7.67875 33.0415 8.78054C33.5893 9.88234 33.8632 11.1688 33.8632 12.6399C33.8632 14.1049 33.5893 15.3852 33.0415 16.4808C32.4936 17.5765 31.7242 18.429 30.7332 19.0384C29.7422 19.6477 28.582 19.9524 27.2524 19.9524ZM27.2616 17.6349C28.1234 17.6349 28.8374 17.4072 29.4037 16.9517C29.97 16.4962 30.3885 15.8899 30.6594 15.1328C30.9364 14.3757 31.0748 13.5417 31.0748 12.6307C31.0748 11.7259 30.9364 10.8949 30.6594 10.1378C30.3885 9.37453 29.97 8.76208 29.4037 8.30043C28.8374 7.83878 28.1234 7.60796 27.2616 7.60796C26.3937 7.60796 25.6736 7.83878 25.1011 8.30043C24.5348 8.76208 24.1132 9.37453 23.8362 10.1378C23.5654 10.8949 23.43 11.7259 23.43 12.6307C23.43 13.5417 23.5654 14.3757 23.8362 15.1328C24.1132 15.8899 24.5348 16.4962 25.1011 16.9517C25.6736 17.4072 26.3937 17.6349 27.2616 17.6349ZM39.4836 19.6662L35.3103 5.48438H38.1633L40.9424 15.8992H41.0809L43.8693 5.48438H46.7223L49.4922 15.853H49.6306L52.3913 5.48438H55.2443L51.0802 19.6662H48.2642L45.3835 9.42685H45.1711L42.2905 19.6662H39.4836ZM57.7601 19.6662V5.48438H60.5208V19.6662H57.7601ZM59.1543 3.29617C58.6742 3.29617 58.2618 3.13613 57.9171 2.81606C57.5786 2.48982 57.4093 2.10204 57.4093 1.6527C57.4093 1.19721 57.5786 0.809427 57.9171 0.489351C58.2618 0.16312 58.6742 5.126e-06 59.1543 5.126e-06C59.6344 5.126e-06 60.0438 0.16312 60.3823 0.489351C60.727 0.809427 60.8993 1.19721 60.8993 1.6527C60.8993 2.10204 60.727 2.48982 60.3823 2.81606C60.0438 3.13613 59.6344 3.29617 59.1543 3.29617ZM66.8914 11.2457V19.6662H64.1307V5.48438H66.7806V7.79262H66.956C67.2823 7.04167 67.7932 6.43845 68.4887 5.98296C69.1904 5.52747 70.0737 5.29972 71.1386 5.29972C72.1049 5.29972 72.9513 5.50285 73.6776 5.9091C74.4039 6.30919 74.9672 6.90626 75.3673 7.70029C75.7674 8.49432 75.9674 9.47609 75.9674 10.6456V19.6662H73.2067V10.978C73.2067 9.95005 72.939 9.14679 72.4035 8.56819C71.868 7.98343 71.1324 7.69106 70.1968 7.69106C69.5566 7.69106 68.9873 7.82955 68.4887 8.10654C67.9963 8.38353 67.6054 8.78978 67.3161 9.32529C67.033 9.85465 66.8914 10.4948 66.8914 11.2457ZM85.5118 25.2798C84.3854 25.2798 83.4159 25.1321 82.6034 24.8367C81.7971 24.5412 81.1385 24.1503 80.6276 23.6641C80.1167 23.1778 79.7351 22.6454 79.4827 22.0668L81.8556 21.0881C82.0218 21.3589 82.2434 21.6451 82.5204 21.9467C82.8035 22.2545 83.1851 22.5161 83.6652 22.7315C84.1515 22.947 84.7763 23.0547 85.5395 23.0547C86.5859 23.0547 87.4508 22.7992 88.134 22.2884C88.8172 21.7836 89.1588 20.9773 89.1588 19.8693V17.081H88.9834C88.8172 17.3826 88.5772 17.718 88.2633 18.0874C87.9555 18.4567 87.5308 18.7768 86.9891 19.0476C86.4474 19.3184 85.7427 19.4538 84.8748 19.4538C83.7545 19.4538 82.745 19.1922 81.8463 18.669C80.9538 18.1397 80.246 17.361 79.7228 16.3331C79.2057 15.299 78.9472 14.0279 78.9472 12.5199C78.9472 11.0118 79.2026 9.71923 79.7135 8.64205C80.2306 7.56487 80.9384 6.74006 81.8371 6.16762C82.7358 5.58902 83.7545 5.29972 84.8932 5.29972C85.7734 5.29972 86.4844 5.44745 87.026 5.7429C87.5677 6.0322 87.9893 6.37074 88.291 6.75853C88.5987 7.14631 88.8357 7.48793 89.0019 7.78339H89.205V5.48438H91.9103V19.9801C91.9103 21.1989 91.6271 22.1991 91.0608 22.9808C90.4945 23.7626 89.7282 24.3412 88.7618 24.7166C87.8016 25.0921 86.7183 25.2798 85.5118 25.2798ZM85.4841 17.1641C86.2782 17.1641 86.9491 16.9794 87.4969 16.6101C88.0509 16.2346 88.4695 15.6991 88.7526 15.0036C89.0419 14.3019 89.1865 13.4617 89.1865 12.483C89.1865 11.5289 89.045 10.6887 88.7618 9.96236C88.4787 9.23604 88.0632 8.66975 87.5154 8.2635C86.9676 7.85109 86.2905 7.64489 85.4841 7.64489C84.6532 7.64489 83.9607 7.86033 83.4067 8.2912C82.8527 8.71591 82.4342 9.29451 82.151 10.027C81.874 10.7595 81.7356 11.5781 81.7356 12.483C81.7356 13.4124 81.8771 14.228 82.1603 14.9297C82.4434 15.6314 82.862 16.1792 83.4159 16.5732C83.9761 16.9671 84.6655 17.1641 85.4841 17.1641Z" fill="#FAFAFA"/>
</svg>
