<svg width="44" height="14" viewBox="0 0 44 14" fill="none" xmlns="http://www.w3.org/2000/svg">
<path d="M4.43626 13.0909H0.000177532V2.38419e-06H4.52575C5.82546 2.38419e-06 6.94194 0.262076 7.87518 0.786224C8.81268 1.30611 9.53285 2.05398 10.0357 3.02983C10.5385 4.00568 10.79 5.1733 10.79 6.53267C10.79 7.89631 10.5364 9.06818 10.0293 10.0483C9.52646 11.0284 8.79989 11.7805 7.84961 12.3047C6.90359 12.8288 5.7658 13.0909 4.43626 13.0909ZM2.37163 11.0391H4.3212C5.23313 11.0391 5.99379 10.8729 6.60316 10.5405C7.21254 10.2038 7.67063 9.70313 7.97745 9.03836C8.28427 8.36932 8.43768 7.53409 8.43768 6.53267C8.43768 5.53125 8.28427 4.70029 7.97745 4.03978C7.67063 3.375 7.2168 2.87855 6.61595 2.55043C6.01935 2.21804 5.27788 2.05185 4.39151 2.05185H2.37163V11.0391ZM17.1875 13.2827C16.2287 13.2827 15.3978 13.0717 14.6946 12.6499C13.9915 12.228 13.4461 11.6378 13.0583 10.8793C12.6748 10.1207 12.483 9.23438 12.483 8.22017C12.483 7.20597 12.6748 6.31747 13.0583 5.55469C13.4461 4.79191 13.9915 4.19958 14.6946 3.7777C15.3978 3.35583 16.2287 3.14489 17.1875 3.14489C18.1464 3.14489 18.9773 3.35583 19.6804 3.7777C20.3836 4.19958 20.9269 4.79191 21.3104 5.55469C21.6982 6.31747 21.8921 7.20597 21.8921 8.22017C21.8921 9.23438 21.6982 10.1207 21.3104 10.8793C20.9269 11.6378 20.3836 12.228 19.6804 12.6499C18.9773 13.0717 18.1464 13.2827 17.1875 13.2827ZM17.2003 11.429C17.7202 11.429 18.1549 11.2862 18.5043 11.0007C18.8537 10.7109 19.1137 10.3232 19.2841 9.83736C19.4589 9.35157 19.5462 8.81037 19.5462 8.21378C19.5462 7.61293 19.4589 7.0696 19.2841 6.58381C19.1137 6.09375 18.8537 5.70384 18.5043 5.41406C18.1549 5.12429 17.7202 4.97941 17.2003 4.97941C16.6677 4.97941 16.2245 5.12429 15.8708 5.41406C15.5214 5.70384 15.2593 6.09375 15.0846 6.58381C14.9141 7.0696 14.8289 7.61293 14.8289 8.21378C14.8289 8.81037 14.9141 9.35157 15.0846 9.83736C15.2593 10.3232 15.5214 10.7109 15.8708 11.0007C16.2245 11.2862 16.6677 11.429 17.2003 11.429ZM26.134 7.33807V13.0909H23.82V3.27273H26.0317V4.94105H26.1467C26.3726 4.39134 26.7327 3.95455 27.227 3.63068C27.7256 3.30682 28.3414 3.14489 29.0743 3.14489C29.7519 3.14489 30.3421 3.28978 30.8449 3.57955C31.352 3.86932 31.7441 4.28907 32.021 4.83878C32.3023 5.3885 32.4408 6.0554 32.4365 6.83949V13.0909H30.1226V7.19745C30.1226 6.5412 29.9521 6.0277 29.6112 5.65696C29.2746 5.28622 28.808 5.10085 28.2114 5.10085C27.8066 5.10085 27.4465 5.19034 27.1311 5.36932C26.82 5.54404 26.575 5.79759 26.396 6.12997C26.2213 6.46236 26.134 6.86506 26.134 7.33807ZM39.0994 13.2827C38.115 13.2827 37.2649 13.0781 36.549 12.669C35.8373 12.2557 35.2897 11.6719 34.9062 10.9176C34.5227 10.1591 34.3309 9.26634 34.3309 8.23935C34.3309 7.22941 34.5227 6.34304 34.9062 5.58026C35.294 4.81321 35.8352 4.21662 36.5298 3.79049C37.2244 3.36009 38.0404 3.14489 38.9779 3.14489C39.583 3.14489 40.1541 3.2429 40.691 3.43892C41.2322 3.63068 41.7095 3.92898 42.1228 4.33381C42.5404 4.73864 42.8686 5.25426 43.1072 5.88068C43.3458 6.50284 43.4652 7.24432 43.4652 8.10512V8.81463H35.4176V7.25497H41.2471C41.2429 6.81179 41.147 6.41762 40.9595 6.07245C40.772 5.72301 40.5099 5.44816 40.1732 5.24787C39.8409 5.04759 39.4531 4.94745 39.0099 4.94745C38.5369 4.94745 38.1214 5.0625 37.7634 5.29262C37.4055 5.51847 37.1264 5.81676 36.9261 6.1875C36.7301 6.55398 36.6299 6.95668 36.6257 7.3956V8.75711C36.6257 9.32813 36.7301 9.81818 36.9389 10.2273C37.1477 10.6321 37.4396 10.9432 37.8146 11.1605C38.1896 11.3736 38.6285 11.4801 39.1313 11.4801C39.468 11.4801 39.7727 11.4332 40.0454 11.3395C40.3181 11.2415 40.5546 11.0987 40.7549 10.9112C40.9552 10.7237 41.1065 10.4915 41.2088 10.2145L43.3693 10.4574C43.2329 11.0284 42.973 11.527 42.5894 11.9531C42.2102 12.375 41.7244 12.7031 41.1321 12.9375C40.5397 13.1676 39.8622 13.2827 39.0994 13.2827Z" fill="#FAFAFA"/>
</svg>
