<svg width="160" height="208" viewBox="0 0 160 208" fill="none" xmlns="http://www.w3.org/2000/svg">
<circle opacity="0.1" cx="80" cy="80" r="79.5" fill="#78350F" stroke="#F59E0B"/>
<circle opacity="0.3" cx="80" cy="80" r="69.5" fill="#78350F" stroke="#F59E0B"/>
<circle cx="80" cy="80" r="59.5" fill="#451A03" stroke="#F59E0B"/>
<g clip-path="url(#clip0_68_469)">
<path d="M78.7777 58.8791C79.8516 56.5598 83.1484 56.5598 84.2223 58.8791L89.2499 69.7367C89.6879 70.6825 90.5853 71.3332 91.6204 71.4554L103.521 72.8609C106.066 73.1616 107.087 76.3099 105.201 78.0467L96.419 86.1368C95.6495 86.8456 95.3049 87.9041 95.5095 88.9301L97.8432 100.629C98.3437 103.139 95.6749 105.082 93.4402 103.836L82.961 97.9933C82.0528 97.4869 80.9472 97.4869 80.039 97.9933L69.5598 103.836C67.3251 105.082 64.6563 103.139 65.1568 100.629L67.4905 88.9301C67.6951 87.9041 67.3505 86.8456 66.581 86.1368L57.7987 78.0467C55.9134 76.3099 56.9338 73.1616 59.4794 72.8609L71.3796 71.4554C72.4147 71.3332 73.3121 70.6825 73.7501 69.7367L78.7777 58.8791Z" fill="#F59E0B"/>
</g>
<path d="M48.3498 199H45.3213L52.126 180.091H55.4222L62.2269 199H59.1985L53.8526 183.526H53.7049L48.3498 199ZM48.8576 191.595H58.6814V193.996H48.8576V191.595ZM67.3926 180.091V199H64.6319V180.091H67.3926ZM71.0026 204.318V184.818H73.6986V187.117H73.9294C74.0894 186.822 74.3203 186.48 74.6219 186.092C74.9235 185.705 75.342 185.366 75.8776 185.077C76.4131 184.781 77.1209 184.634 78.0011 184.634C79.146 184.634 80.1678 184.923 81.0665 185.501C81.9651 186.08 82.6699 186.914 83.1808 188.004C83.6979 189.093 83.9564 190.404 83.9564 191.937C83.9564 193.469 83.7009 194.784 83.1901 195.879C82.6792 196.969 81.9775 197.809 81.0849 198.4C80.1924 198.985 79.1737 199.277 78.0288 199.277C77.1671 199.277 76.4623 199.132 75.9145 198.843C75.3728 198.554 74.9481 198.215 74.6403 197.827C74.3326 197.44 74.0956 197.095 73.9294 196.793H73.7632V204.318H71.0026ZM73.7078 191.909C73.7078 192.906 73.8525 193.78 74.1418 194.531C74.4311 195.282 74.8496 195.87 75.3974 196.295C75.9453 196.713 76.6162 196.923 77.4102 196.923C78.235 196.923 78.9244 196.704 79.4784 196.267C80.0324 195.824 80.4509 195.224 80.7341 194.467C81.0234 193.71 81.168 192.857 81.168 191.909C81.168 190.973 81.0265 190.133 80.7433 189.388C80.4663 188.644 80.0478 188.056 79.4876 187.625C78.9337 187.194 78.2412 186.979 77.4102 186.979C76.61 186.979 75.933 187.185 75.379 187.597C74.8312 188.01 74.4157 188.585 74.1325 189.324C73.8494 190.062 73.7078 190.924 73.7078 191.909ZM89.7061 190.58V199H86.9454V180.091H89.6691V187.126H89.8446C90.177 186.363 90.6848 185.757 91.368 185.308C92.0512 184.858 92.9438 184.634 94.0456 184.634C95.0181 184.634 95.8675 184.834 96.5939 185.234C97.3263 185.634 97.8926 186.231 98.2927 187.025C98.699 187.813 98.9021 188.798 98.9021 189.979V199H96.1414V190.312C96.1414 189.272 95.8737 188.465 95.3382 187.893C94.8027 187.314 94.0579 187.025 93.1038 187.025C92.4513 187.025 91.8666 187.163 91.3495 187.44C90.8387 187.717 90.4355 188.124 90.14 188.659C89.8507 189.188 89.7061 189.829 89.7061 190.58ZM106.609 199.314C105.711 199.314 104.898 199.148 104.172 198.815C103.445 198.477 102.87 197.987 102.445 197.347C102.027 196.707 101.817 195.922 101.817 194.993C101.817 194.193 101.971 193.534 102.279 193.017C102.587 192.5 103.002 192.091 103.525 191.789C104.049 191.487 104.633 191.26 105.28 191.106C105.926 190.952 106.585 190.835 107.255 190.755C108.105 190.656 108.794 190.576 109.324 190.515C109.853 190.447 110.238 190.339 110.478 190.192C110.718 190.044 110.838 189.804 110.838 189.472V189.407C110.838 188.601 110.61 187.976 110.155 187.533C109.705 187.089 109.034 186.868 108.142 186.868C107.212 186.868 106.48 187.074 105.944 187.487C105.415 187.893 105.049 188.345 104.846 188.844L102.251 188.253C102.559 187.391 103.008 186.696 103.599 186.166C104.196 185.631 104.883 185.243 105.658 185.003C106.434 184.757 107.249 184.634 108.105 184.634C108.671 184.634 109.271 184.701 109.905 184.837C110.545 184.966 111.143 185.206 111.697 185.557C112.257 185.908 112.715 186.409 113.072 187.062C113.429 187.708 113.608 188.548 113.608 189.582V199H110.912V197.061H110.801C110.622 197.418 110.355 197.769 109.998 198.114C109.641 198.458 109.182 198.745 108.622 198.972C108.062 199.2 107.391 199.314 106.609 199.314ZM107.209 197.098C107.973 197.098 108.625 196.947 109.167 196.646C109.715 196.344 110.13 195.95 110.413 195.464C110.702 194.971 110.847 194.445 110.847 193.885V192.057C110.749 192.155 110.558 192.248 110.275 192.334C109.998 192.414 109.681 192.485 109.324 192.546C108.967 192.602 108.619 192.654 108.28 192.703C107.942 192.746 107.659 192.783 107.431 192.814C106.895 192.882 106.406 192.996 105.963 193.156C105.526 193.316 105.175 193.546 104.91 193.848C104.652 194.143 104.523 194.537 104.523 195.03C104.523 195.713 104.775 196.23 105.28 196.581C105.784 196.926 106.428 197.098 107.209 197.098Z" fill="#FAFAFA"/>
<defs>
<clipPath id="clip0_68_469">
<rect width="72" height="72" fill="white" transform="translate(44 44)"/>
</clipPath>
</defs>
</svg>
