<svg width="271" height="160" viewBox="0 0 271 160" fill="none" xmlns="http://www.w3.org/2000/svg">
<circle opacity="0.1" cx="136" cy="80" r="79.5" fill="#78350F" stroke="#F59E0B" stroke-linecap="round"/>
<circle opacity="0.3" cx="136" cy="80" r="69.5" fill="#78350F" stroke="#F59E0B" stroke-linecap="round"/>
<circle cx="136" cy="80" r="59.5" fill="#451A03" stroke="#F59E0B" stroke-linecap="round"/>
<g clip-path="url(#clip0_42_1922)">
<path d="M134.778 58.8791C135.852 56.5598 139.148 56.5598 140.222 58.8791L145.25 69.7367C145.688 70.6825 146.585 71.3332 147.62 71.4554L159.521 72.8609C162.066 73.1616 163.087 76.3099 161.201 78.0467L152.419 86.1368C151.65 86.8456 151.305 87.9041 151.51 88.9301L153.843 100.629C154.344 103.139 151.675 105.082 149.44 103.836L138.961 97.9933C138.053 97.4869 136.947 97.4869 136.039 97.9933L125.56 103.836C123.325 105.082 120.656 103.139 121.157 100.629L123.49 88.9301C123.695 87.9041 123.35 86.8456 122.581 86.1368L113.799 78.0467C111.913 76.3099 112.934 73.1616 115.479 72.8609L127.38 71.4554C128.415 71.3332 129.312 70.6825 129.75 69.7367L134.778 58.8791Z" fill="#F59E0B"/>
</g>
<path d="M1 80H270" stroke="#F59E0B" stroke-width="2" stroke-linecap="round"/>
<defs>
<clipPath id="clip0_42_1922">
<rect width="72" height="72" fill="white" transform="translate(100 44)"/>
</clipPath>
</defs>
</svg>
