<svg width="160" height="160" viewBox="0 0 160 160" fill="none" xmlns="http://www.w3.org/2000/svg">
<circle opacity="0.1" cx="80" cy="80" r="79.5" fill="#78350F" stroke="#F59E0B"/>
<circle opacity="0.3" cx="80" cy="80" r="69.5" fill="#78350F" stroke="#F59E0B"/>
<circle cx="80" cy="80" r="59" fill="#451A03" stroke="#D3D3D3" stroke-width="2"/>
<g clip-path="url(#clip0_42_1856)">
<path d="M78.7777 58.8791C79.8516 56.5598 83.1484 56.5598 84.2223 58.8791L89.2499 69.7367C89.6879 70.6825 90.5853 71.3332 91.6204 71.4554L103.521 72.8609C106.066 73.1616 107.087 76.3099 105.201 78.0467L96.419 86.1368C95.6495 86.8456 95.3049 87.9041 95.5095 88.9301L97.8432 100.629C98.3437 103.139 95.6749 105.082 93.4402 103.836L82.961 97.9933C82.0528 97.4869 80.9472 97.4869 80.039 97.9933L69.5598 103.836C67.3251 105.082 64.6563 103.139 65.1568 100.629L67.4905 88.9301C67.6951 87.9041 67.3505 86.8456 66.581 86.1368L57.7987 78.0467C55.9134 76.3099 56.9338 73.1616 59.4794 72.8609L71.3796 71.4554C72.4147 71.3332 73.3121 70.6825 73.7501 69.7367L78.7777 58.8791Z" fill="#FAFAFA"/>
</g>
<defs>
<clipPath id="clip0_42_1856">
<rect width="72" height="72" fill="white" transform="translate(44 44)"/>
</clipPath>
</defs>
</svg>
