<svg width="160" height="208" viewBox="0 0 160 208" fill="none" xmlns="http://www.w3.org/2000/svg">
<circle opacity="0.1" cx="80" cy="80" r="79.5" fill="#1E3A8A" stroke="#3B82F6"/>
<circle opacity="0.3" cx="80" cy="80" r="69.5" fill="#1E3A8A" stroke="#3B82F6"/>
<circle cx="80" cy="80" r="59.5" fill="#1E3A8A" stroke="#3B82F6"/>
<g clip-path="url(#clip0_68_240)">
<path d="M59.0006 101C57.5006 89.0001 59.6006 68.0001 80.0006 80.0001C100.401 92.0001 102.5 71 101 59" stroke="#3B82F6" stroke-width="6"/>
<circle cx="6" cy="6" r="6" transform="matrix(-1 0 0 1 107 53)" fill="#EFF6FF"/>
<circle cx="6" cy="6" r="6" transform="matrix(-1 0 0 1 65 95)" fill="#EFF6FF"/>
</g>
<path d="M56.4551 185.058C56.3566 184.184 55.9503 183.507 55.2363 183.027C54.5223 182.541 53.6236 182.298 52.5403 182.298C51.7647 182.298 51.0938 182.421 50.5275 182.667C49.9612 182.907 49.5211 183.239 49.2072 183.664C48.8994 184.083 48.7456 184.56 48.7456 185.095C48.7456 185.545 48.8502 185.932 49.0595 186.259C49.2749 186.585 49.555 186.859 49.8997 187.08C50.2505 187.296 50.626 187.477 51.0261 187.625C51.4262 187.767 51.8109 187.884 52.1802 187.976L54.0268 188.456C54.63 188.604 55.2486 188.804 55.8826 189.056C56.5166 189.308 57.1045 189.641 57.6461 190.053C58.1878 190.466 58.6248 190.977 58.9572 191.586C59.2957 192.195 59.465 192.925 59.465 193.774C59.465 194.845 59.188 195.796 58.634 196.627C58.0862 197.458 57.2891 198.114 56.2427 198.594C55.2025 199.074 53.9437 199.314 52.4664 199.314C51.0507 199.314 49.8258 199.089 48.7917 198.64C47.7576 198.191 46.9482 197.554 46.3635 196.729C45.7787 195.898 45.4555 194.913 45.394 193.774H48.2562C48.3116 194.457 48.5332 195.027 48.921 195.482C49.3149 195.932 49.8166 196.267 50.426 196.489C51.0415 196.704 51.7155 196.812 52.448 196.812C53.2543 196.812 53.9714 196.686 54.5992 196.433C55.2332 196.175 55.7318 195.818 56.095 195.362C56.4581 194.901 56.6397 194.362 56.6397 193.746C56.6397 193.186 56.4797 192.728 56.1596 192.371C55.8457 192.014 55.4179 191.718 54.8762 191.484C54.3407 191.25 53.7344 191.044 53.0573 190.866L50.823 190.256C49.3088 189.844 48.1085 189.238 47.2221 188.438C46.3419 187.637 45.9018 186.579 45.9018 185.261C45.9018 184.172 46.1973 183.221 46.7882 182.408C47.3791 181.596 48.1793 180.965 49.1887 180.516C50.1982 180.06 51.3369 179.832 52.6049 179.832C53.8852 179.832 55.0147 180.057 55.9934 180.506C56.9783 180.956 57.7538 181.574 58.3201 182.362C58.8864 183.144 59.1819 184.043 59.2065 185.058H56.4551ZM68.5224 199.286C67.1498 199.286 65.968 198.975 64.977 198.354C63.9921 197.726 63.235 196.861 62.7057 195.759C62.1763 194.657 61.9116 193.396 61.9116 191.974C61.9116 190.533 62.1825 189.262 62.7241 188.161C63.2658 187.053 64.029 186.188 65.0139 185.566C65.9987 184.944 67.159 184.634 68.4947 184.634C69.5719 184.634 70.5321 184.834 71.3754 185.234C72.2187 185.628 72.8988 186.182 73.4159 186.896C73.9391 187.61 74.2499 188.444 74.3484 189.398H71.6616C71.5139 188.733 71.1753 188.161 70.646 187.68C70.1228 187.2 69.4211 186.96 68.5409 186.96C67.7715 186.96 67.0975 187.163 66.5189 187.57C65.9464 187.97 65.5002 188.542 65.1801 189.287C64.86 190.026 64.7 190.9 64.7 191.909C64.7 192.943 64.8569 193.836 65.1709 194.587C65.4848 195.338 65.928 195.919 66.5004 196.332C67.079 196.744 67.7592 196.95 68.5409 196.95C69.0641 196.95 69.538 196.855 69.9628 196.664C70.3936 196.467 70.7537 196.187 71.043 195.824C71.3385 195.461 71.5447 195.024 71.6616 194.513H74.3484C74.2499 195.43 73.9514 196.249 73.4528 196.969C72.9542 197.689 72.2864 198.255 71.4493 198.668C70.6183 199.08 69.6427 199.286 68.5224 199.286ZM83.1704 199.286C81.8408 199.286 80.6805 198.982 79.6895 198.372C78.6985 197.763 77.9291 196.91 77.3813 195.815C76.8335 194.719 76.5596 193.439 76.5596 191.974C76.5596 190.503 76.8335 189.216 77.3813 188.114C77.9291 187.013 78.6985 186.157 79.6895 185.548C80.6805 184.938 81.8408 184.634 83.1704 184.634C84.4999 184.634 85.6602 184.938 86.6512 185.548C87.6422 186.157 88.4116 187.013 88.9594 188.114C89.5073 189.216 89.7812 190.503 89.7812 191.974C89.7812 193.439 89.5073 194.719 88.9594 195.815C88.4116 196.91 87.6422 197.763 86.6512 198.372C85.6602 198.982 84.4999 199.286 83.1704 199.286ZM83.1796 196.969C84.0413 196.969 84.7554 196.741 85.3216 196.286C85.8879 195.83 86.3065 195.224 86.5773 194.467C86.8543 193.71 86.9928 192.875 86.9928 191.964C86.9928 191.06 86.8543 190.229 86.5773 189.472C86.3065 188.708 85.8879 188.096 85.3216 187.634C84.7554 187.173 84.0413 186.942 83.1796 186.942C82.3117 186.942 81.5915 187.173 81.0191 187.634C80.4528 188.096 80.0312 188.708 79.7542 189.472C79.4833 190.229 79.3479 191.06 79.3479 191.964C79.3479 192.875 79.4833 193.71 79.7542 194.467C80.0312 195.224 80.4528 195.83 81.0191 196.286C81.5915 196.741 82.3117 196.969 83.1796 196.969ZM101.742 193.119V184.818H104.512V199H101.798V196.544H101.65C101.324 197.301 100.801 197.932 100.08 198.437C99.3664 198.935 98.4769 199.185 97.4121 199.185C96.5011 199.185 95.6947 198.985 94.993 198.585C94.2975 198.178 93.7497 197.578 93.3496 196.784C92.9556 195.99 92.7587 195.008 92.7587 193.839V184.818H95.5193V193.506C95.5193 194.473 95.7871 195.242 96.3226 195.815C96.8581 196.387 97.5536 196.673 98.4092 196.673C98.9263 196.673 99.4402 196.544 99.9511 196.286C100.468 196.027 100.896 195.636 101.235 195.113C101.579 194.59 101.748 193.925 101.742 193.119ZM114.738 184.818V187.034H106.991V184.818H114.738ZM109.069 181.42H111.829V194.836C111.829 195.371 111.909 195.775 112.069 196.045C112.229 196.31 112.435 196.492 112.688 196.59C112.946 196.683 113.226 196.729 113.528 196.729C113.75 196.729 113.944 196.713 114.11 196.683C114.276 196.652 114.405 196.627 114.498 196.609L114.996 198.889C114.836 198.951 114.608 199.012 114.313 199.074C114.017 199.142 113.648 199.179 113.205 199.185C112.479 199.197 111.801 199.068 111.174 198.797C110.546 198.526 110.038 198.107 109.65 197.541C109.262 196.975 109.069 196.264 109.069 195.408V181.42Z" fill="#FAFAFA"/>
<defs>
<clipPath id="clip0_68_240">
<rect width="72" height="72" fill="white" transform="translate(44 44)"/>
</clipPath>
</defs>
</svg>
