<svg width="160" height="208" viewBox="0 0 160 208" fill="none" xmlns="http://www.w3.org/2000/svg">
<circle opacity="0.1" cx="80" cy="80" r="79.5" fill="#14532D" stroke="#22C55E"/>
<circle opacity="0.3" cx="80" cy="80" r="69.5" fill="#14532D" stroke="#22C55E"/>
<circle cx="80" cy="80" r="59.5" fill="#052E16" stroke="#22C55E"/>
<g clip-path="url(#clip0_68_492)">
<path d="M56 59C56 57.3431 57.3431 56 59 56H65C66.6569 56 68 57.3431 68 59V104H56V59Z" fill="#22C55E"/>
<path d="M74 71C74 69.3431 75.3431 68 77 68H83C84.6569 68 86 69.3431 86 71V104H74V71Z" fill="#22C55E"/>
<path d="M92 59C92 57.3431 93.3431 56 95 56H101C102.657 56 104 57.3431 104 59V104H92V59Z" fill="#22C55E"/>
</g>
<path d="M53.8594 199V180.091H60.7841C62.126 180.091 63.237 180.312 64.1172 180.756C64.9974 181.193 65.656 181.787 66.0931 182.538C66.5301 183.282 66.7486 184.123 66.7486 185.058C66.7486 185.846 66.6039 186.511 66.3146 187.053C66.0253 187.588 65.6376 188.019 65.1513 188.345C64.6712 188.665 64.1418 188.899 63.5632 189.047V189.232C64.1911 189.262 64.8035 189.465 65.4006 189.841C66.0038 190.21 66.5024 190.737 66.8963 191.42C67.2903 192.103 67.4872 192.934 67.4872 193.913C67.4872 194.879 67.2595 195.747 66.804 196.516C66.3547 197.28 65.6591 197.886 64.7173 198.335C63.7756 198.778 62.5722 199 61.1073 199H53.8594ZM56.7124 196.553H60.8303C62.1967 196.553 63.1754 196.289 63.7663 195.759C64.3573 195.23 64.6527 194.568 64.6527 193.774C64.6527 193.177 64.5019 192.629 64.2003 192.131C63.8987 191.632 63.4678 191.235 62.9077 190.94C62.3537 190.644 61.6951 190.496 60.9318 190.496H56.7124V196.553ZM56.7124 188.271H60.5348C61.175 188.271 61.7505 188.148 62.2614 187.902C62.7784 187.656 63.1878 187.311 63.4894 186.868C63.7971 186.419 63.951 185.889 63.951 185.28C63.951 184.498 63.6771 183.843 63.1293 183.313C62.5815 182.784 61.7413 182.519 60.6087 182.519H56.7124V188.271ZM76.6577 199.286C75.2605 199.286 74.0571 198.988 73.0477 198.391C72.0443 197.787 71.2688 196.941 70.7209 195.852C70.1793 194.756 69.9084 193.473 69.9084 192.001C69.9084 190.549 70.1793 189.268 70.7209 188.161C71.2688 187.053 72.032 186.188 73.0107 185.566C73.9956 184.944 75.1466 184.634 76.4638 184.634C77.264 184.634 78.0396 184.766 78.7906 185.031C79.5415 185.295 80.2155 185.711 80.8126 186.277C81.4096 186.843 81.8805 187.579 82.2252 188.484C82.5699 189.382 82.7423 190.475 82.7423 191.761V192.74H71.4688V190.672H80.037C80.037 189.946 79.8893 189.302 79.5938 188.742C79.2984 188.176 78.8829 187.73 78.3474 187.403C77.818 187.077 77.1963 186.914 76.4823 186.914C75.7067 186.914 75.0297 187.105 74.4511 187.487C73.8786 187.862 73.4354 188.354 73.1215 188.964C72.8138 189.567 72.6599 190.223 72.6599 190.93V192.546C72.6599 193.494 72.8261 194.3 73.1584 194.965C73.497 195.63 73.9679 196.138 74.5711 196.489C75.1743 196.833 75.8791 197.006 76.6854 197.006C77.2086 197.006 77.6857 196.932 78.1165 196.784C78.5474 196.63 78.9198 196.402 79.2337 196.101C79.5477 195.799 79.7877 195.427 79.9539 194.984L82.5668 195.455C82.3575 196.224 81.9821 196.898 81.4404 197.477C80.9049 198.049 80.2309 198.495 79.4184 198.815C78.612 199.129 77.6918 199.286 76.6577 199.286ZM92.3213 184.818V187.034H84.5749V184.818H92.3213ZM86.6523 181.42H89.4129V194.836C89.4129 195.371 89.4929 195.775 89.653 196.045C89.813 196.31 90.0192 196.492 90.2716 196.59C90.5301 196.683 90.8102 196.729 91.1118 196.729C91.3334 196.729 91.5273 196.713 91.6935 196.683C91.8597 196.652 91.9889 196.627 92.0813 196.609L92.5798 198.889C92.4198 198.951 92.1921 199.012 91.8966 199.074C91.6011 199.142 91.2318 199.179 90.7886 199.185C90.0623 199.197 89.3852 199.068 88.7574 198.797C88.1296 198.526 87.6217 198.107 87.234 197.541C86.8462 196.975 86.6523 196.264 86.6523 195.408V181.42ZM99.3982 199.314C98.4996 199.314 97.6871 199.148 96.9607 198.815C96.2344 198.477 95.6589 197.987 95.2342 197.347C94.8156 196.707 94.6063 195.922 94.6063 194.993C94.6063 194.193 94.7602 193.534 95.068 193.017C95.3757 192.5 95.7912 192.091 96.3144 191.789C96.8376 191.487 97.4224 191.26 98.0687 191.106C98.715 190.952 99.3736 190.835 100.045 190.755C100.894 190.656 101.583 190.576 102.113 190.515C102.642 190.447 103.027 190.339 103.267 190.192C103.507 190.044 103.627 189.804 103.627 189.472V189.407C103.627 188.601 103.399 187.976 102.944 187.533C102.494 187.089 101.823 186.868 100.931 186.868C100.001 186.868 99.269 187.074 98.7335 187.487C98.2041 187.893 97.8379 188.345 97.6347 188.844L95.0403 188.253C95.348 187.391 95.7974 186.696 96.3883 186.166C96.9854 185.631 97.6717 185.243 98.4472 185.003C99.2228 184.757 100.038 184.634 100.894 184.634C101.46 184.634 102.06 184.701 102.694 184.837C103.335 184.966 103.932 185.206 104.486 185.557C105.046 185.908 105.504 186.409 105.861 187.062C106.218 187.708 106.397 188.548 106.397 189.582V199H103.701V197.061H103.59C103.411 197.418 103.144 197.769 102.787 198.114C102.43 198.458 101.971 198.745 101.411 198.972C100.851 199.2 100.18 199.314 99.3982 199.314ZM99.9984 197.098C100.762 197.098 101.414 196.947 101.956 196.646C102.504 196.344 102.919 195.95 103.202 195.464C103.492 194.971 103.636 194.445 103.636 193.885V192.057C103.538 192.155 103.347 192.248 103.064 192.334C102.787 192.414 102.47 192.485 102.113 192.546C101.756 192.602 101.408 192.654 101.069 192.703C100.731 192.746 100.448 192.783 100.22 192.814C99.6845 192.882 99.1951 192.996 98.7519 193.156C98.3149 193.316 97.9641 193.546 97.6994 193.848C97.4409 194.143 97.3116 194.537 97.3116 195.03C97.3116 195.713 97.564 196.23 98.0687 196.581C98.5734 196.926 99.2167 197.098 99.9984 197.098Z" fill="#FAFAFA"/>
<defs>
<clipPath id="clip0_68_492">
<rect width="72" height="72" fill="white" transform="translate(44 41)"/>
</clipPath>
</defs>
</svg>
